<svg width="1280" height="386" viewBox="0 0 1280 386" fill="none" xmlns="http://www.w3.org/2000/svg">
<g filter="url(#filter0_d_0_76)">
<rect x="4" width="613" height="176" rx="20" fill="white"/>
</g>
<path d="M37.825 45.875V49.425H43.55V52.725H37.825V56.575H44.3V60H33.55V42.45H44.3V45.875H37.825ZM55.3254 60L52.6504 56.125L50.4004 60H45.7754L50.3754 52.875L45.6504 46.05H50.4504L53.1254 49.9L55.3754 46.05H60.0004L55.3254 53.075L60.1254 60H55.3254ZM66.0477 48.025C66.4643 47.375 67.0393 46.85 67.7727 46.45C68.506 46.05 69.3643 45.85 70.3477 45.85C71.4977 45.85 72.5393 46.1417 73.4727 46.725C74.406 47.3083 75.1393 48.1417 75.6727 49.225C76.2227 50.3083 76.4977 51.5667 76.4977 53C76.4977 54.4333 76.2227 55.7 75.6727 56.8C75.1393 57.8833 74.406 58.725 73.4727 59.325C72.5393 59.9083 71.4977 60.2 70.3477 60.2C69.381 60.2 68.5227 60 67.7727 59.6C67.0393 59.2 66.4643 58.6833 66.0477 58.05V66.65H61.7727V46.05H66.0477V48.025ZM72.1477 53C72.1477 51.9333 71.8477 51.1 71.2477 50.5C70.6643 49.8833 69.9393 49.575 69.0727 49.575C68.2227 49.575 67.4977 49.8833 66.8977 50.5C66.3143 51.1167 66.0227 51.9583 66.0227 53.025C66.0227 54.0917 66.3143 54.9333 66.8977 55.55C67.4977 56.1667 68.2227 56.475 69.0727 56.475C69.9227 56.475 70.6477 56.1667 71.2477 55.55C71.8477 54.9167 72.1477 54.0667 72.1477 53ZM83.0154 41.5V60H78.7404V41.5H83.0154ZM92.4635 60.2C91.0968 60.2 89.8635 59.9083 88.7635 59.325C87.6801 58.7417 86.8218 57.9083 86.1885 56.825C85.5718 55.7417 85.2635 54.475 85.2635 53.025C85.2635 51.5917 85.5801 50.3333 86.2135 49.25C86.8468 48.15 87.7135 47.3083 88.8135 46.725C89.9135 46.1417 91.1468 45.85 92.5135 45.85C93.8801 45.85 95.1135 46.1417 96.2135 46.725C97.3135 47.3083 98.1801 48.15 98.8135 49.25C99.4468 50.3333 99.7635 51.5917 99.7635 53.025C99.7635 54.4583 99.4385 55.725 98.7885 56.825C98.1551 57.9083 97.2801 58.7417 96.1635 59.325C95.0635 59.9083 93.8301 60.2 92.4635 60.2ZM92.4635 56.5C93.2801 56.5 93.9718 56.2 94.5385 55.6C95.1218 55 95.4135 54.1417 95.4135 53.025C95.4135 51.9083 95.1301 51.05 94.5635 50.45C94.0135 49.85 93.3301 49.55 92.5135 49.55C91.6801 49.55 90.9885 49.85 90.4385 50.45C89.8885 51.0333 89.6135 51.8917 89.6135 53.025C89.6135 54.1417 89.8801 55 90.4135 55.6C90.9635 56.2 91.6468 56.5 92.4635 56.5ZM106.306 48.375C106.806 47.6083 107.431 47.0083 108.181 46.575C108.931 46.125 109.765 45.9 110.681 45.9V50.425H109.506C108.44 50.425 107.64 50.6583 107.106 51.125C106.573 51.575 106.306 52.375 106.306 53.525V60H102.031V46.05H106.306V48.375ZM114.875 44.6C114.125 44.6 113.508 44.3833 113.025 43.95C112.558 43.5 112.325 42.95 112.325 42.3C112.325 41.6333 112.558 41.0833 113.025 40.65C113.508 40.2 114.125 39.975 114.875 39.975C115.608 39.975 116.208 40.2 116.675 40.65C117.158 41.0833 117.4 41.6333 117.4 42.3C117.4 42.95 117.158 43.5 116.675 43.95C116.208 44.3833 115.608 44.6 114.875 44.6ZM117 46.05V60H112.725V46.05H117ZM128.598 45.9C130.231 45.9 131.531 46.4333 132.498 47.5C133.481 48.55 133.973 50 133.973 51.85V60H129.723V52.425C129.723 51.4917 129.481 50.7667 128.998 50.25C128.515 49.7333 127.865 49.475 127.048 49.475C126.231 49.475 125.581 49.7333 125.098 50.25C124.615 50.7667 124.373 51.4917 124.373 52.425V60H120.098V46.05H124.373V47.9C124.806 47.2833 125.39 46.8 126.123 46.45C126.856 46.0833 127.681 45.9 128.598 45.9ZM153.166 56.9H146.616L145.566 60H141.091L147.441 42.45H152.391L158.741 60H154.216L153.166 56.9ZM152.066 53.6L149.891 47.175L147.741 53.6H152.066ZM159.824 53.025C159.824 51.575 160.116 50.3083 160.699 49.225C161.299 48.1417 162.124 47.3083 163.174 46.725C164.241 46.1417 165.457 45.85 166.824 45.85C168.574 45.85 170.032 46.3083 171.199 47.225C172.382 48.1417 173.157 49.4333 173.524 51.1H168.974C168.591 50.0333 167.849 49.5 166.749 49.5C165.966 49.5 165.341 49.8083 164.874 50.425C164.407 51.025 164.174 51.8917 164.174 53.025C164.174 54.1583 164.407 55.0333 164.874 55.65C165.341 56.25 165.966 56.55 166.749 56.55C167.849 56.55 168.591 56.0167 168.974 54.95H173.524C173.157 56.5833 172.382 57.8667 171.199 58.8C170.016 59.7333 168.557 60.2 166.824 60.2C165.457 60.2 164.241 59.9083 163.174 59.325C162.124 58.7417 161.299 57.9083 160.699 56.825C160.116 55.7417 159.824 54.475 159.824 53.025ZM174.961 53C174.961 51.5667 175.227 50.3083 175.761 49.225C176.311 48.1417 177.052 47.3083 177.986 46.725C178.919 46.1417 179.961 45.85 181.111 45.85C182.094 45.85 182.952 46.05 183.686 46.45C184.436 46.85 185.011 47.375 185.411 48.025V46.05H189.686V60H185.411V58.025C184.994 58.675 184.411 59.2 183.661 59.6C182.927 60 182.069 60.2 181.086 60.2C179.952 60.2 178.919 59.9083 177.986 59.325C177.052 58.725 176.311 57.8833 175.761 56.8C175.227 55.7 174.961 54.4333 174.961 53ZM185.411 53.025C185.411 51.9583 185.111 51.1167 184.511 50.5C183.927 49.8833 183.211 49.575 182.361 49.575C181.511 49.575 180.786 49.8833 180.186 50.5C179.602 51.1 179.311 51.9333 179.311 53C179.311 54.0667 179.602 54.9167 180.186 55.55C180.786 56.1667 181.511 56.475 182.361 56.475C183.211 56.475 183.927 56.1667 184.511 55.55C185.111 54.9333 185.411 54.0917 185.411 53.025ZM191.929 53C191.929 51.5667 192.195 50.3083 192.729 49.225C193.279 48.1417 194.02 47.3083 194.954 46.725C195.887 46.1417 196.929 45.85 198.079 45.85C198.995 45.85 199.829 46.0417 200.579 46.425C201.345 46.8083 201.945 47.325 202.379 47.975V41.5H206.654V60H202.379V58C201.979 58.6667 201.404 59.2 200.654 59.6C199.92 60 199.062 60.2 198.079 60.2C196.929 60.2 195.887 59.9083 194.954 59.325C194.02 58.725 193.279 57.8833 192.729 56.8C192.195 55.7 191.929 54.4333 191.929 53ZM202.379 53.025C202.379 51.9583 202.079 51.1167 201.479 50.5C200.895 49.8833 200.179 49.575 199.329 49.575C198.479 49.575 197.754 49.8833 197.154 50.5C196.57 51.1 196.279 51.9333 196.279 53C196.279 54.0667 196.57 54.9167 197.154 55.55C197.754 56.1667 198.479 56.475 199.329 56.475C200.179 56.475 200.895 56.1667 201.479 55.55C202.079 54.9333 202.379 54.0917 202.379 53.025ZM222.896 52.8C222.896 53.2 222.871 53.6167 222.821 54.05H213.146C213.213 54.9167 213.488 55.5833 213.971 56.05C214.471 56.5 215.08 56.725 215.796 56.725C216.863 56.725 217.605 56.275 218.021 55.375H222.571C222.338 56.2917 221.913 57.1167 221.296 57.85C220.696 58.5833 219.938 59.1583 219.021 59.575C218.105 59.9917 217.08 60.2 215.946 60.2C214.58 60.2 213.363 59.9083 212.296 59.325C211.23 58.7417 210.396 57.9083 209.796 56.825C209.196 55.7417 208.896 54.475 208.896 53.025C208.896 51.575 209.188 50.3083 209.771 49.225C210.371 48.1417 211.205 47.3083 212.271 46.725C213.338 46.1417 214.563 45.85 215.946 45.85C217.296 45.85 218.496 46.1333 219.546 46.7C220.596 47.2667 221.413 48.075 221.996 49.125C222.596 50.175 222.896 51.4 222.896 52.8ZM218.521 51.675C218.521 50.9417 218.271 50.3583 217.771 49.925C217.271 49.4917 216.646 49.275 215.896 49.275C215.18 49.275 214.571 49.4833 214.071 49.9C213.588 50.3167 213.288 50.9083 213.171 51.675H218.521ZM242.952 45.9C244.685 45.9 246.06 46.425 247.077 47.475C248.11 48.525 248.627 49.9833 248.627 51.85V60H244.377V52.425C244.377 51.525 244.135 50.8333 243.652 50.35C243.185 49.85 242.535 49.6 241.702 49.6C240.868 49.6 240.21 49.85 239.727 50.35C239.26 50.8333 239.027 51.525 239.027 52.425V60H234.777V52.425C234.777 51.525 234.535 50.8333 234.052 50.35C233.585 49.85 232.935 49.6 232.102 49.6C231.268 49.6 230.61 49.85 230.127 50.35C229.66 50.8333 229.427 51.525 229.427 52.425V60H225.152V46.05H229.427V47.8C229.86 47.2167 230.427 46.7583 231.127 46.425C231.827 46.075 232.618 45.9 233.502 45.9C234.552 45.9 235.485 46.125 236.302 46.575C237.135 47.025 237.785 47.6667 238.252 48.5C238.735 47.7333 239.393 47.1083 240.227 46.625C241.06 46.1417 241.968 45.9 242.952 45.9ZM265.866 46.05L257.116 66.625H252.516L255.716 59.525L250.041 46.05H254.816L258.041 54.775L261.241 46.05H265.866Z" fill="black"/>
<path d="M33.122 91.394C34.9847 89.898 36.444 88.6733 37.5 87.72C38.556 86.752 39.4433 85.7473 40.162 84.706C40.8953 83.65 41.262 82.616 41.262 81.604C41.262 80.6507 41.0273 79.9027 40.558 79.36C40.1033 78.8027 39.3627 78.524 38.336 78.524C37.3387 78.524 36.5613 78.8393 36.004 79.47C35.4613 80.086 35.168 80.9147 35.124 81.956H33.188C33.2467 80.3133 33.7453 79.0447 34.684 78.15C35.6227 77.2553 36.8327 76.808 38.314 76.808C39.8247 76.808 41.02 77.226 41.9 78.062C42.7947 78.898 43.242 80.0493 43.242 81.516C43.242 82.7333 42.8753 83.9213 42.142 85.08C41.4233 86.224 40.602 87.236 39.678 88.116C38.754 88.9813 37.5733 89.9933 36.136 91.152H43.704V92.824H33.122V91.394ZM46.0183 84.882C46.0183 82.3593 46.429 80.394 47.2503 78.986C48.0716 77.5633 49.509 76.852 51.5623 76.852C53.601 76.852 55.031 77.5633 55.8523 78.986C56.6736 80.394 57.0843 82.3593 57.0843 84.882C57.0843 87.4487 56.6736 89.4433 55.8523 90.866C55.031 92.2887 53.601 93 51.5623 93C49.509 93 48.0716 92.2887 47.2503 90.866C46.429 89.4433 46.0183 87.4487 46.0183 84.882ZM55.1043 84.882C55.1043 83.606 55.0163 82.528 54.8403 81.648C54.679 80.7533 54.3343 80.0347 53.8063 79.492C53.293 78.9493 52.545 78.678 51.5623 78.678C50.565 78.678 49.8023 78.9493 49.2743 79.492C48.761 80.0347 48.4163 80.7533 48.2403 81.648C48.079 82.528 47.9983 83.606 47.9983 84.882C47.9983 86.202 48.079 87.3093 48.2403 88.204C48.4163 89.0987 48.761 89.8173 49.2743 90.36C49.8023 90.9027 50.565 91.174 51.5623 91.174C52.545 91.174 53.293 90.9027 53.8063 90.36C54.3343 89.8173 54.679 89.0987 54.8403 88.204C55.0163 87.3093 55.1043 86.202 55.1043 84.882ZM59.5908 91.394C61.4534 89.898 62.9128 88.6733 63.9688 87.72C65.0248 86.752 65.9121 85.7473 66.6308 84.706C67.3641 83.65 67.7308 82.616 67.7308 81.604C67.7308 80.6507 67.4961 79.9027 67.0268 79.36C66.5721 78.8027 65.8314 78.524 64.8048 78.524C63.8074 78.524 63.0301 78.8393 62.4728 79.47C61.9301 80.086 61.6368 80.9147 61.5928 81.956H59.6568C59.7154 80.3133 60.2141 79.0447 61.1528 78.15C62.0914 77.2553 63.3014 76.808 64.7828 76.808C66.2934 76.808 67.4888 77.226 68.3688 78.062C69.2634 78.898 69.7108 80.0493 69.7108 81.516C69.7108 82.7333 69.3441 83.9213 68.6108 85.08C67.8921 86.224 67.0708 87.236 66.1468 88.116C65.2228 88.9813 64.0421 89.9933 62.6048 91.152H70.1728V92.824H59.5908V91.394ZM72.443 81.098C72.5457 79.7487 73.0664 78.6927 74.005 77.93C74.9437 77.1673 76.161 76.786 77.657 76.786C78.6544 76.786 79.5124 76.9693 80.231 77.336C80.9644 77.688 81.5144 78.172 81.881 78.788C82.2624 79.404 82.453 80.1007 82.453 80.878C82.453 81.7873 82.189 82.572 81.661 83.232C81.1477 83.892 80.473 84.3173 79.637 84.508V84.618C80.5904 84.8527 81.3457 85.3147 81.903 86.004C82.4604 86.6933 82.739 87.5953 82.739 88.71C82.739 89.546 82.5484 90.3013 82.167 90.976C81.7857 91.636 81.2137 92.1567 80.451 92.538C79.6884 92.9193 78.7717 93.11 77.701 93.11C76.1464 93.11 74.8704 92.7067 73.873 91.9C72.8757 91.0787 72.3184 89.92 72.201 88.424H74.137C74.2397 89.304 74.599 90.0227 75.215 90.58C75.831 91.1373 76.6524 91.416 77.679 91.416C78.7057 91.416 79.483 91.152 80.011 90.624C80.5537 90.0813 80.825 89.3847 80.825 88.534C80.825 87.434 80.4584 86.642 79.725 86.158C78.9917 85.674 77.8844 85.432 76.403 85.432H75.897V83.76H76.425C77.7744 83.7453 78.7937 83.5253 79.483 83.1C80.1724 82.66 80.517 81.9853 80.517 81.076C80.517 80.2987 80.2604 79.6753 79.747 79.206C79.2484 78.7367 78.5297 78.502 77.591 78.502C76.6817 78.502 75.9484 78.7367 75.391 79.206C74.8337 79.6753 74.5037 80.306 74.401 81.098H72.443ZM94.1321 84.09V85.784H85.3541V84.09H94.1321ZM97.3173 91.394C99.18 89.898 100.639 88.6733 101.695 87.72C102.751 86.752 103.639 85.7473 104.357 84.706C105.091 83.65 105.457 82.616 105.457 81.604C105.457 80.6507 105.223 79.9027 104.753 79.36C104.299 78.8027 103.558 78.524 102.531 78.524C101.534 78.524 100.757 78.8393 100.199 79.47C99.6566 80.086 99.3633 80.9147 99.3193 81.956H97.3833C97.442 80.3133 97.9406 79.0447 98.8793 78.15C99.818 77.2553 101.028 76.808 102.509 76.808C104.02 76.808 105.215 77.226 106.095 78.062C106.99 78.898 107.437 80.0493 107.437 81.516C107.437 82.7333 107.071 83.9213 106.337 85.08C105.619 86.224 104.797 87.236 103.873 88.116C102.949 88.9813 101.769 89.9933 100.331 91.152H107.899V92.824H97.3173V91.394ZM110.214 84.882C110.214 82.3593 110.624 80.394 111.446 78.986C112.267 77.5633 113.704 76.852 115.758 76.852C117.796 76.852 119.226 77.5633 120.048 78.986C120.869 80.394 121.28 82.3593 121.28 84.882C121.28 87.4487 120.869 89.4433 120.048 90.866C119.226 92.2887 117.796 93 115.758 93C113.704 93 112.267 92.2887 111.446 90.866C110.624 89.4433 110.214 87.4487 110.214 84.882ZM119.3 84.882C119.3 83.606 119.212 82.528 119.036 81.648C118.874 80.7533 118.53 80.0347 118.002 79.492C117.488 78.9493 116.74 78.678 115.758 78.678C114.76 78.678 113.998 78.9493 113.47 79.492C112.956 80.0347 112.612 80.7533 112.436 81.648C112.274 82.528 112.194 83.606 112.194 84.882C112.194 86.202 112.274 87.3093 112.436 88.204C112.612 89.0987 112.956 89.8173 113.47 90.36C113.998 90.9027 114.76 91.174 115.758 91.174C116.74 91.174 117.488 90.9027 118.002 90.36C118.53 89.8173 118.874 89.0987 119.036 88.204C119.212 87.3093 119.3 86.202 119.3 84.882ZM123.786 91.394C125.649 89.898 127.108 88.6733 128.164 87.72C129.22 86.752 130.107 85.7473 130.826 84.706C131.559 83.65 131.926 82.616 131.926 81.604C131.926 80.6507 131.691 79.9027 131.222 79.36C130.767 78.8027 130.027 78.524 129 78.524C128.003 78.524 127.225 78.8393 126.668 79.47C126.125 80.086 125.832 80.9147 125.788 81.956H123.852C123.911 80.3133 124.409 79.0447 125.348 78.15C126.287 77.2553 127.497 76.808 128.978 76.808C130.489 76.808 131.684 77.226 132.564 78.062C133.459 78.898 133.906 80.0493 133.906 81.516C133.906 82.7333 133.539 83.9213 132.806 85.08C132.087 86.224 131.266 87.236 130.342 88.116C129.418 88.9813 128.237 89.9933 126.8 91.152H134.368V92.824H123.786V91.394ZM136.198 89.458V87.94L143.92 77.248H146.318V87.72H148.518V89.458H146.318V93H144.338V89.458H136.198ZM144.426 79.338L138.508 87.72H144.426V79.338Z" fill="#F37021"/>
<path d="M38.816 121.256C39.2213 121.32 39.5893 121.485 39.92 121.752C40.2613 122.019 40.528 122.349 40.72 122.744C40.9227 123.139 41.024 123.56 41.024 124.008C41.024 124.573 40.88 125.085 40.592 125.544C40.304 125.992 39.8827 126.349 39.328 126.616C38.784 126.872 38.1387 127 37.392 127H33.232V115.848H37.232C37.9893 115.848 38.6347 115.976 39.168 116.232C39.7013 116.477 40.1013 116.813 40.368 117.24C40.6347 117.667 40.768 118.147 40.768 118.68C40.768 119.341 40.5867 119.891 40.224 120.328C39.872 120.755 39.4027 121.064 38.816 121.256ZM34.688 120.664H37.136C37.8187 120.664 38.3467 120.504 38.72 120.184C39.0933 119.864 39.28 119.421 39.28 118.856C39.28 118.291 39.0933 117.848 38.72 117.528C38.3467 117.208 37.808 117.048 37.104 117.048H34.688V120.664ZM37.264 125.8C37.9893 125.8 38.5547 125.629 38.96 125.288C39.3653 124.947 39.568 124.472 39.568 123.864C39.568 123.245 39.3547 122.76 38.928 122.408C38.5013 122.045 37.9307 121.864 37.216 121.864H34.688V125.8H37.264ZM49.9085 115.848V117.032H46.8685V127H45.4125V117.032H42.3565V115.848H49.9085ZM59.7008 122.28C59.7008 122.557 59.6848 122.851 59.6528 123.16H52.6448C52.6981 124.024 52.9914 124.701 53.5248 125.192C54.0688 125.672 54.7248 125.912 55.4928 125.912C56.1221 125.912 56.6448 125.768 57.0608 125.48C57.4874 125.181 57.7861 124.787 57.9568 124.296H59.5248C59.2901 125.139 58.8208 125.827 58.1168 126.36C57.4128 126.883 56.5381 127.144 55.4928 127.144C54.6608 127.144 53.9141 126.957 53.2528 126.584C52.6021 126.211 52.0901 125.683 51.7168 125C51.3434 124.307 51.1568 123.507 51.1568 122.6C51.1568 121.693 51.3381 120.899 51.7008 120.216C52.0634 119.533 52.5701 119.011 53.2208 118.648C53.8821 118.275 54.6394 118.088 55.4928 118.088C56.3248 118.088 57.0608 118.269 57.7008 118.632C58.3408 118.995 58.8314 119.496 59.1728 120.136C59.5248 120.765 59.7008 121.48 59.7008 122.28ZM58.1968 121.976C58.1968 121.421 58.0741 120.947 57.8288 120.552C57.5834 120.147 57.2474 119.843 56.8208 119.64C56.4048 119.427 55.9408 119.32 55.4288 119.32C54.6928 119.32 54.0634 119.555 53.5408 120.024C53.0288 120.493 52.7354 121.144 52.6608 121.976H58.1968ZM61.0786 122.6C61.0786 121.693 61.26 120.904 61.6226 120.232C61.9853 119.549 62.4866 119.021 63.1266 118.648C63.7773 118.275 64.5186 118.088 65.3506 118.088C66.428 118.088 67.3133 118.349 68.0066 118.872C68.7106 119.395 69.1746 120.12 69.3986 121.048H67.8306C67.6813 120.515 67.388 120.093 66.9506 119.784C66.524 119.475 65.9906 119.32 65.3506 119.32C64.5186 119.32 63.8466 119.608 63.3346 120.184C62.8226 120.749 62.5666 121.555 62.5666 122.6C62.5666 123.656 62.8226 124.472 63.3346 125.048C63.8466 125.624 64.5186 125.912 65.3506 125.912C65.9906 125.912 66.524 125.763 66.9506 125.464C67.3773 125.165 67.6706 124.739 67.8306 124.184H69.3986C69.164 125.08 68.6946 125.8 67.9906 126.344C67.2866 126.877 66.4066 127.144 65.3506 127.144C64.5186 127.144 63.7773 126.957 63.1266 126.584C62.4866 126.211 61.9853 125.683 61.6226 125C61.26 124.317 61.0786 123.517 61.0786 122.6ZM75.6934 118.072C76.3547 118.072 76.952 118.216 77.4854 118.504C78.0187 118.781 78.4347 119.203 78.7334 119.768C79.0427 120.333 79.1974 121.021 79.1974 121.832V127H77.7574V122.04C77.7574 121.165 77.5387 120.499 77.1014 120.04C76.664 119.571 76.0667 119.336 75.3094 119.336C74.5414 119.336 73.928 119.576 73.4694 120.056C73.0214 120.536 72.7974 121.235 72.7974 122.152V127H71.3414V115.16H72.7974V119.48C73.0854 119.032 73.48 118.685 73.9814 118.44C74.4934 118.195 75.064 118.072 75.6934 118.072ZM87.6654 128.696H86.2094V114.28H87.6654V128.696ZM94.2193 121.416C94.2193 120.328 94.4646 119.352 94.9553 118.488C95.4459 117.613 96.1126 116.931 96.9553 116.44C97.8086 115.949 98.7526 115.704 99.7873 115.704C101.003 115.704 102.065 115.997 102.971 116.584C103.878 117.171 104.539 118.003 104.955 119.08H103.211C102.902 118.408 102.454 117.891 101.867 117.528C101.291 117.165 100.598 116.984 99.7873 116.984C99.0086 116.984 98.3099 117.165 97.6913 117.528C97.0726 117.891 96.5873 118.408 96.2353 119.08C95.8833 119.741 95.7073 120.52 95.7073 121.416C95.7073 122.301 95.8833 123.08 96.2353 123.752C96.5873 124.413 97.0726 124.925 97.6913 125.288C98.3099 125.651 99.0086 125.832 99.7873 125.832C100.598 125.832 101.291 125.656 101.867 125.304C102.454 124.941 102.902 124.424 103.211 123.752H104.955C104.539 124.819 103.878 125.645 102.971 126.232C102.065 126.808 101.003 127.096 99.7873 127.096C98.7526 127.096 97.8086 126.856 96.9553 126.376C96.1126 125.885 95.4459 125.208 94.9553 124.344C94.4646 123.48 94.2193 122.504 94.2193 121.416ZM110.947 127.144C110.125 127.144 109.379 126.957 108.707 126.584C108.045 126.211 107.523 125.683 107.139 125C106.765 124.307 106.579 123.507 106.579 122.6C106.579 121.704 106.771 120.915 107.155 120.232C107.549 119.539 108.083 119.011 108.755 118.648C109.427 118.275 110.179 118.088 111.011 118.088C111.843 118.088 112.595 118.275 113.267 118.648C113.939 119.011 114.467 119.533 114.851 120.216C115.245 120.899 115.443 121.693 115.443 122.6C115.443 123.507 115.24 124.307 114.835 125C114.44 125.683 113.901 126.211 113.219 126.584C112.536 126.957 111.779 127.144 110.947 127.144ZM110.947 125.864C111.469 125.864 111.96 125.741 112.419 125.496C112.877 125.251 113.245 124.883 113.523 124.392C113.811 123.901 113.955 123.304 113.955 122.6C113.955 121.896 113.816 121.299 113.539 120.808C113.261 120.317 112.899 119.955 112.451 119.72C112.003 119.475 111.517 119.352 110.995 119.352C110.461 119.352 109.971 119.475 109.523 119.72C109.085 119.955 108.733 120.317 108.467 120.808C108.2 121.299 108.067 121.896 108.067 122.6C108.067 123.315 108.195 123.917 108.451 124.408C108.717 124.899 109.069 125.267 109.507 125.512C109.944 125.747 110.424 125.864 110.947 125.864ZM127.901 118.072C128.584 118.072 129.192 118.216 129.725 118.504C130.258 118.781 130.68 119.203 130.989 119.768C131.298 120.333 131.453 121.021 131.453 121.832V127H130.013V122.04C130.013 121.165 129.794 120.499 129.357 120.04C128.93 119.571 128.349 119.336 127.613 119.336C126.856 119.336 126.253 119.581 125.805 120.072C125.357 120.552 125.133 121.251 125.133 122.168V127H123.693V122.04C123.693 121.165 123.474 120.499 123.037 120.04C122.61 119.571 122.029 119.336 121.293 119.336C120.536 119.336 119.933 119.581 119.485 120.072C119.037 120.552 118.813 121.251 118.813 122.168V127H117.357V118.232H118.813V119.496C119.101 119.037 119.485 118.685 119.965 118.44C120.456 118.195 120.994 118.072 121.581 118.072C122.317 118.072 122.968 118.237 123.533 118.568C124.098 118.899 124.52 119.384 124.797 120.024C125.042 119.405 125.448 118.925 126.013 118.584C126.578 118.243 127.208 118.072 127.901 118.072ZM135.297 119.848C135.585 119.347 136.012 118.931 136.577 118.6C137.153 118.259 137.82 118.088 138.577 118.088C139.356 118.088 140.06 118.275 140.689 118.648C141.329 119.021 141.831 119.549 142.193 120.232C142.556 120.904 142.737 121.688 142.737 122.584C142.737 123.469 142.556 124.259 142.193 124.952C141.831 125.645 141.329 126.184 140.689 126.568C140.06 126.952 139.356 127.144 138.577 127.144C137.831 127.144 137.169 126.979 136.593 126.648C136.028 126.307 135.596 125.885 135.297 125.384V131.16H133.841V118.232H135.297V119.848ZM141.249 122.584C141.249 121.923 141.116 121.347 140.849 120.856C140.583 120.365 140.22 119.992 139.761 119.736C139.313 119.48 138.817 119.352 138.273 119.352C137.74 119.352 137.244 119.485 136.785 119.752C136.337 120.008 135.975 120.387 135.697 120.888C135.431 121.379 135.297 121.949 135.297 122.6C135.297 123.261 135.431 123.843 135.697 124.344C135.975 124.835 136.337 125.213 136.785 125.48C137.244 125.736 137.74 125.864 138.273 125.864C138.817 125.864 139.313 125.736 139.761 125.48C140.22 125.213 140.583 124.835 140.849 124.344C141.116 123.843 141.249 123.256 141.249 122.584ZM152.43 118.232V127H150.974V125.704C150.697 126.152 150.307 126.504 149.806 126.76C149.315 127.005 148.771 127.128 148.174 127.128C147.491 127.128 146.878 126.989 146.334 126.712C145.79 126.424 145.358 125.997 145.038 125.432C144.729 124.867 144.574 124.179 144.574 123.368V118.232H146.014V123.176C146.014 124.04 146.233 124.707 146.67 125.176C147.107 125.635 147.705 125.864 148.462 125.864C149.241 125.864 149.854 125.624 150.302 125.144C150.75 124.664 150.974 123.965 150.974 123.048V118.232H152.43ZM156.664 119.432V124.6C156.664 125.027 156.755 125.331 156.936 125.512C157.118 125.683 157.432 125.768 157.88 125.768H158.952V127H157.64C156.83 127 156.222 126.813 155.816 126.44C155.411 126.067 155.208 125.453 155.208 124.6V119.432H154.072V118.232H155.208V116.024H156.664V118.232H158.952V119.432H156.664ZM168.716 122.28C168.716 122.557 168.7 122.851 168.668 123.16H161.66C161.714 124.024 162.007 124.701 162.54 125.192C163.084 125.672 163.74 125.912 164.508 125.912C165.138 125.912 165.66 125.768 166.076 125.48C166.503 125.181 166.802 124.787 166.972 124.296H168.54C168.306 125.139 167.836 125.827 167.132 126.36C166.428 126.883 165.554 127.144 164.508 127.144C163.676 127.144 162.93 126.957 162.268 126.584C161.618 126.211 161.106 125.683 160.732 125C160.359 124.307 160.172 123.507 160.172 122.6C160.172 121.693 160.354 120.899 160.716 120.216C161.079 119.533 161.586 119.011 162.236 118.648C162.898 118.275 163.655 118.088 164.508 118.088C165.34 118.088 166.076 118.269 166.716 118.632C167.356 118.995 167.847 119.496 168.188 120.136C168.54 120.765 168.716 121.48 168.716 122.28ZM167.212 121.976C167.212 121.421 167.09 120.947 166.844 120.552C166.599 120.147 166.263 119.843 165.836 119.64C165.42 119.427 164.956 119.32 164.444 119.32C163.708 119.32 163.079 119.555 162.556 120.024C162.044 120.493 161.751 121.144 161.676 121.976H167.212ZM172.094 119.656C172.35 119.155 172.713 118.765 173.182 118.488C173.662 118.211 174.244 118.072 174.926 118.072V119.576H174.542C172.91 119.576 172.094 120.461 172.094 122.232V127H170.638V118.232H172.094V119.656ZM184.409 127.112C183.673 127.112 183.011 126.984 182.425 126.728C181.849 126.461 181.395 126.099 181.065 125.64C180.734 125.171 180.563 124.632 180.553 124.024H182.105C182.158 124.547 182.371 124.989 182.745 125.352C183.129 125.704 183.683 125.88 184.409 125.88C185.102 125.88 185.646 125.709 186.041 125.368C186.446 125.016 186.649 124.568 186.649 124.024C186.649 123.597 186.531 123.251 186.297 122.984C186.062 122.717 185.769 122.515 185.417 122.376C185.065 122.237 184.59 122.088 183.993 121.928C183.257 121.736 182.665 121.544 182.217 121.352C181.779 121.16 181.401 120.861 181.081 120.456C180.771 120.04 180.617 119.485 180.617 118.792C180.617 118.184 180.771 117.645 181.081 117.176C181.39 116.707 181.822 116.344 182.377 116.088C182.942 115.832 183.587 115.704 184.313 115.704C185.358 115.704 186.211 115.965 186.873 116.488C187.545 117.011 187.923 117.704 188.009 118.568H186.409C186.355 118.141 186.131 117.768 185.737 117.448C185.342 117.117 184.819 116.952 184.169 116.952C183.561 116.952 183.065 117.112 182.681 117.432C182.297 117.741 182.105 118.179 182.105 118.744C182.105 119.149 182.217 119.48 182.441 119.736C182.675 119.992 182.958 120.189 183.289 120.328C183.63 120.456 184.105 120.605 184.713 120.776C185.449 120.979 186.041 121.181 186.489 121.384C186.937 121.576 187.321 121.88 187.641 122.296C187.961 122.701 188.121 123.256 188.121 123.96C188.121 124.504 187.977 125.016 187.689 125.496C187.401 125.976 186.974 126.365 186.409 126.664C185.843 126.963 185.177 127.112 184.409 127.112ZM189.719 122.6C189.719 121.693 189.901 120.904 190.263 120.232C190.626 119.549 191.127 119.021 191.767 118.648C192.418 118.275 193.159 118.088 193.991 118.088C195.069 118.088 195.954 118.349 196.647 118.872C197.351 119.395 197.815 120.12 198.039 121.048H196.471C196.322 120.515 196.029 120.093 195.591 119.784C195.165 119.475 194.631 119.32 193.991 119.32C193.159 119.32 192.487 119.608 191.975 120.184C191.463 120.749 191.207 121.555 191.207 122.6C191.207 123.656 191.463 124.472 191.975 125.048C192.487 125.624 193.159 125.912 193.991 125.912C194.631 125.912 195.165 125.763 195.591 125.464C196.018 125.165 196.311 124.739 196.471 124.184H198.039C197.805 125.08 197.335 125.8 196.631 126.344C195.927 126.877 195.047 127.144 193.991 127.144C193.159 127.144 192.418 126.957 191.767 126.584C191.127 126.211 190.626 125.683 190.263 125C189.901 124.317 189.719 123.517 189.719 122.6ZM200.734 116.808C200.457 116.808 200.222 116.712 200.03 116.52C199.838 116.328 199.742 116.093 199.742 115.816C199.742 115.539 199.838 115.304 200.03 115.112C200.222 114.92 200.457 114.824 200.734 114.824C201.001 114.824 201.225 114.92 201.406 115.112C201.598 115.304 201.694 115.539 201.694 115.816C201.694 116.093 201.598 116.328 201.406 116.52C201.225 116.712 201.001 116.808 200.734 116.808ZM201.438 118.232V127H199.982V118.232H201.438ZM211.92 122.28C211.92 122.557 211.904 122.851 211.872 123.16H204.864C204.917 124.024 205.21 124.701 205.744 125.192C206.288 125.672 206.944 125.912 207.712 125.912C208.341 125.912 208.864 125.768 209.28 125.48C209.706 125.181 210.005 124.787 210.176 124.296H211.744C211.509 125.139 211.04 125.827 210.336 126.36C209.632 126.883 208.757 127.144 207.712 127.144C206.88 127.144 206.133 126.957 205.472 126.584C204.821 126.211 204.309 125.683 203.936 125C203.562 124.307 203.376 123.507 203.376 122.6C203.376 121.693 203.557 120.899 203.92 120.216C204.282 119.533 204.789 119.011 205.44 118.648C206.101 118.275 206.858 118.088 207.712 118.088C208.544 118.088 209.28 118.269 209.92 118.632C210.56 118.995 211.05 119.496 211.392 120.136C211.744 120.765 211.92 121.48 211.92 122.28ZM210.416 121.976C210.416 121.421 210.293 120.947 210.048 120.552C209.802 120.147 209.466 119.843 209.04 119.64C208.624 119.427 208.16 119.32 207.648 119.32C206.912 119.32 206.282 119.555 205.76 120.024C205.248 120.493 204.954 121.144 204.88 121.976H210.416ZM218.113 118.072C219.18 118.072 220.044 118.397 220.705 119.048C221.367 119.688 221.697 120.616 221.697 121.832V127H220.257V122.04C220.257 121.165 220.039 120.499 219.601 120.04C219.164 119.571 218.567 119.336 217.809 119.336C217.041 119.336 216.428 119.576 215.969 120.056C215.521 120.536 215.297 121.235 215.297 122.152V127H213.841V118.232H215.297V119.48C215.585 119.032 215.975 118.685 216.465 118.44C216.967 118.195 217.516 118.072 218.113 118.072ZM223.532 122.6C223.532 121.693 223.713 120.904 224.076 120.232C224.438 119.549 224.94 119.021 225.58 118.648C226.23 118.275 226.972 118.088 227.804 118.088C228.881 118.088 229.766 118.349 230.46 118.872C231.164 119.395 231.628 120.12 231.852 121.048H230.284C230.134 120.515 229.841 120.093 229.404 119.784C228.977 119.475 228.444 119.32 227.804 119.32C226.972 119.32 226.3 119.608 225.788 120.184C225.276 120.749 225.02 121.555 225.02 122.6C225.02 123.656 225.276 124.472 225.788 125.048C226.3 125.624 226.972 125.912 227.804 125.912C228.444 125.912 228.977 125.763 229.404 125.464C229.83 125.165 230.124 124.739 230.284 124.184H231.852C231.617 125.08 231.148 125.8 230.444 126.344C229.74 126.877 228.86 127.144 227.804 127.144C226.972 127.144 226.23 126.957 225.58 126.584C224.94 126.211 224.438 125.683 224.076 125C223.713 124.317 223.532 123.517 223.532 122.6ZM241.795 122.28C241.795 122.557 241.779 122.851 241.747 123.16H234.739C234.792 124.024 235.085 124.701 235.619 125.192C236.163 125.672 236.819 125.912 237.587 125.912C238.216 125.912 238.739 125.768 239.155 125.48C239.581 125.181 239.88 124.787 240.051 124.296H241.619C241.384 125.139 240.915 125.827 240.211 126.36C239.507 126.883 238.632 127.144 237.587 127.144C236.755 127.144 236.008 126.957 235.347 126.584C234.696 126.211 234.184 125.683 233.811 125C233.437 124.307 233.251 123.507 233.251 122.6C233.251 121.693 233.432 120.899 233.795 120.216C234.157 119.533 234.664 119.011 235.315 118.648C235.976 118.275 236.733 118.088 237.587 118.088C238.419 118.088 239.155 118.269 239.795 118.632C240.435 118.995 240.925 119.496 241.267 120.136C241.619 120.765 241.795 121.48 241.795 122.28ZM240.291 121.976C240.291 121.421 240.168 120.947 239.923 120.552C239.677 120.147 239.341 119.843 238.915 119.64C238.499 119.427 238.035 119.32 237.523 119.32C236.787 119.32 236.157 119.555 235.635 120.024C235.123 120.493 234.829 121.144 234.755 121.976H240.291Z" fill="black"/>
<circle cx="529" cy="88" r="57.5" stroke="black" stroke-opacity="0.15"/>
<g filter="url(#filter1_d_0_76)">
<rect x="663" width="613" height="176" rx="20" fill="white"/>
</g>
<path d="M691.825 51.2C691.825 49.4667 692.2 47.925 692.95 46.575C693.7 45.2083 694.742 44.15 696.075 43.4C697.425 42.6333 698.95 42.25 700.65 42.25C702.733 42.25 704.517 42.8 706 43.9C707.483 45 708.475 46.5 708.975 48.4H704.275C703.925 47.6667 703.425 47.1083 702.775 46.725C702.142 46.3417 701.417 46.15 700.6 46.15C699.283 46.15 698.217 46.6083 697.4 47.525C696.583 48.4417 696.175 49.6667 696.175 51.2C696.175 52.7333 696.583 53.9583 697.4 54.875C698.217 55.7917 699.283 56.25 700.6 56.25C701.417 56.25 702.142 56.0583 702.775 55.675C703.425 55.2917 703.925 54.7333 704.275 54H708.975C708.475 55.9 707.483 57.4 706 58.5C704.517 59.5833 702.733 60.125 700.65 60.125C698.95 60.125 697.425 59.75 696.075 59C694.742 58.2333 693.7 57.175 692.95 55.825C692.2 54.475 691.825 52.9333 691.825 51.2ZM717.943 60.2C716.576 60.2 715.343 59.9083 714.243 59.325C713.16 58.7417 712.301 57.9083 711.668 56.825C711.051 55.7417 710.743 54.475 710.743 53.025C710.743 51.5917 711.06 50.3333 711.693 49.25C712.326 48.15 713.193 47.3083 714.293 46.725C715.393 46.1417 716.626 45.85 717.993 45.85C719.36 45.85 720.593 46.1417 721.693 46.725C722.793 47.3083 723.66 48.15 724.293 49.25C724.926 50.3333 725.243 51.5917 725.243 53.025C725.243 54.4583 724.918 55.725 724.268 56.825C723.635 57.9083 722.76 58.7417 721.643 59.325C720.543 59.9083 719.31 60.2 717.943 60.2ZM717.943 56.5C718.76 56.5 719.451 56.2 720.018 55.6C720.601 55 720.893 54.1417 720.893 53.025C720.893 51.9083 720.61 51.05 720.043 50.45C719.493 49.85 718.81 49.55 717.993 49.55C717.16 49.55 716.468 49.85 715.918 50.45C715.368 51.0333 715.093 51.8917 715.093 53.025C715.093 54.1417 715.36 55 715.893 55.6C716.443 56.2 717.126 56.5 717.943 56.5ZM731.786 41.5V60H727.511V41.5H731.786ZM739.159 41.5V60H734.884V41.5H739.159ZM755.407 52.8C755.407 53.2 755.382 53.6167 755.332 54.05H745.657C745.724 54.9167 745.999 55.5833 746.482 56.05C746.982 56.5 747.59 56.725 748.307 56.725C749.374 56.725 750.115 56.275 750.532 55.375H755.082C754.849 56.2917 754.424 57.1167 753.807 57.85C753.207 58.5833 752.449 59.1583 751.532 59.575C750.615 59.9917 749.59 60.2 748.457 60.2C747.09 60.2 745.874 59.9083 744.807 59.325C743.74 58.7417 742.907 57.9083 742.307 56.825C741.707 55.7417 741.407 54.475 741.407 53.025C741.407 51.575 741.699 50.3083 742.282 49.225C742.882 48.1417 743.715 47.3083 744.782 46.725C745.849 46.1417 747.074 45.85 748.457 45.85C749.807 45.85 751.007 46.1333 752.057 46.7C753.107 47.2667 753.924 48.075 754.507 49.125C755.107 50.175 755.407 51.4 755.407 52.8ZM751.032 51.675C751.032 50.9417 750.782 50.3583 750.282 49.925C749.782 49.4917 749.157 49.275 748.407 49.275C747.69 49.275 747.082 49.4833 746.582 49.9C746.099 50.3167 745.799 50.9083 745.682 51.675H751.032ZM762.962 45.85C763.946 45.85 764.804 46.05 765.537 46.45C766.287 46.85 766.862 47.375 767.262 48.025V46.05H771.537V59.975C771.537 61.2583 771.279 62.4167 770.762 63.45C770.262 64.5 769.487 65.3333 768.437 65.95C767.404 66.5667 766.112 66.875 764.562 66.875C762.496 66.875 760.821 66.3833 759.537 65.4C758.254 64.4333 757.521 63.1167 757.337 61.45H761.562C761.696 61.9833 762.012 62.4 762.512 62.7C763.012 63.0167 763.629 63.175 764.362 63.175C765.246 63.175 765.946 62.9167 766.462 62.4C766.996 61.9 767.262 61.0917 767.262 59.975V58C766.846 58.65 766.271 59.1833 765.537 59.6C764.804 60 763.946 60.2 762.962 60.2C761.812 60.2 760.771 59.9083 759.837 59.325C758.904 58.725 758.162 57.8833 757.612 56.8C757.079 55.7 756.812 54.4333 756.812 53C756.812 51.5667 757.079 50.3083 757.612 49.225C758.162 48.1417 758.904 47.3083 759.837 46.725C760.771 46.1417 761.812 45.85 762.962 45.85ZM767.262 53.025C767.262 51.9583 766.962 51.1167 766.362 50.5C765.779 49.8833 765.062 49.575 764.212 49.575C763.362 49.575 762.637 49.8833 762.037 50.5C761.454 51.1 761.162 51.9333 761.162 53C761.162 54.0667 761.454 54.9167 762.037 55.55C762.637 56.1667 763.362 56.475 764.212 56.475C765.062 56.475 765.779 56.1667 766.362 55.55C766.962 54.9333 767.262 54.0917 767.262 53.025ZM787.78 52.8C787.78 53.2 787.755 53.6167 787.705 54.05H778.03C778.097 54.9167 778.372 55.5833 778.855 56.05C779.355 56.5 779.963 56.725 780.68 56.725C781.747 56.725 782.488 56.275 782.905 55.375H787.455C787.222 56.2917 786.797 57.1167 786.18 57.85C785.58 58.5833 784.822 59.1583 783.905 59.575C782.988 59.9917 781.963 60.2 780.83 60.2C779.463 60.2 778.247 59.9083 777.18 59.325C776.113 58.7417 775.28 57.9083 774.68 56.825C774.08 55.7417 773.78 54.475 773.78 53.025C773.78 51.575 774.072 50.3083 774.655 49.225C775.255 48.1417 776.088 47.3083 777.155 46.725C778.222 46.1417 779.447 45.85 780.83 45.85C782.18 45.85 783.38 46.1333 784.43 46.7C785.48 47.2667 786.297 48.075 786.88 49.125C787.48 50.175 787.78 51.4 787.78 52.8ZM783.405 51.675C783.405 50.9417 783.155 50.3583 782.655 49.925C782.155 49.4917 781.53 49.275 780.78 49.275C780.063 49.275 779.455 49.4833 778.955 49.9C778.472 50.3167 778.172 50.9083 778.055 51.675H783.405ZM811.033 60H806.758L799.608 49.175V60H795.333V42.45H799.608L806.758 53.325V42.45H811.033V60ZM813.282 53C813.282 51.5667 813.549 50.3083 814.082 49.225C814.632 48.1417 815.374 47.3083 816.307 46.725C817.24 46.1417 818.282 45.85 819.432 45.85C820.415 45.85 821.274 46.05 822.007 46.45C822.757 46.85 823.332 47.375 823.732 48.025V46.05H828.007V60H823.732V58.025C823.315 58.675 822.732 59.2 821.982 59.6C821.249 60 820.39 60.2 819.407 60.2C818.274 60.2 817.24 59.9083 816.307 59.325C815.374 58.725 814.632 57.8833 814.082 56.8C813.549 55.7 813.282 54.4333 813.282 53ZM823.732 53.025C823.732 51.9583 823.432 51.1167 822.832 50.5C822.249 49.8833 821.532 49.575 820.682 49.575C819.832 49.575 819.107 49.8833 818.507 50.5C817.924 51.1 817.632 51.9333 817.632 53C817.632 54.0667 817.924 54.9167 818.507 55.55C819.107 56.1667 819.832 56.475 820.682 56.475C821.532 56.475 822.249 56.1667 822.832 55.55C823.432 54.9333 823.732 54.0917 823.732 53.025ZM848.9 45.9C850.633 45.9 852.008 46.425 853.025 47.475C854.058 48.525 854.575 49.9833 854.575 51.85V60H850.325V52.425C850.325 51.525 850.083 50.8333 849.6 50.35C849.133 49.85 848.483 49.6 847.65 49.6C846.816 49.6 846.158 49.85 845.675 50.35C845.208 50.8333 844.975 51.525 844.975 52.425V60H840.725V52.425C840.725 51.525 840.483 50.8333 840 50.35C839.533 49.85 838.883 49.6 838.05 49.6C837.216 49.6 836.558 49.85 836.075 50.35C835.608 50.8333 835.375 51.525 835.375 52.425V60H831.1V46.05H835.375V47.8C835.808 47.2167 836.375 46.7583 837.075 46.425C837.775 46.075 838.566 45.9 839.45 45.9C840.5 45.9 841.433 46.125 842.25 46.575C843.083 47.025 843.733 47.6667 844.2 48.5C844.683 47.7333 845.341 47.1083 846.175 46.625C847.008 46.1417 847.916 45.9 848.9 45.9ZM870.715 52.8C870.715 53.2 870.69 53.6167 870.64 54.05H860.965C861.031 54.9167 861.306 55.5833 861.79 56.05C862.29 56.5 862.898 56.725 863.615 56.725C864.681 56.725 865.423 56.275 865.84 55.375H870.39C870.156 56.2917 869.731 57.1167 869.115 57.85C868.515 58.5833 867.756 59.1583 866.84 59.575C865.923 59.9917 864.898 60.2 863.765 60.2C862.398 60.2 861.181 59.9083 860.115 59.325C859.048 58.7417 858.215 57.9083 857.615 56.825C857.015 55.7417 856.715 54.475 856.715 53.025C856.715 51.575 857.006 50.3083 857.59 49.225C858.19 48.1417 859.023 47.3083 860.09 46.725C861.156 46.1417 862.381 45.85 863.765 45.85C865.115 45.85 866.315 46.1333 867.365 46.7C868.415 47.2667 869.231 48.075 869.815 49.125C870.415 50.175 870.715 51.4 870.715 52.8ZM866.34 51.675C866.34 50.9417 866.09 50.3583 865.59 49.925C865.09 49.4917 864.465 49.275 863.715 49.275C862.998 49.275 862.39 49.4833 861.89 49.9C861.406 50.3167 861.106 50.9083 860.99 51.675H866.34Z" fill="black"/>
<path d="M692.122 91.394C693.985 89.898 695.444 88.6733 696.5 87.72C697.556 86.752 698.443 85.7473 699.162 84.706C699.895 83.65 700.262 82.616 700.262 81.604C700.262 80.6507 700.027 79.9027 699.558 79.36C699.103 78.8027 698.363 78.524 697.336 78.524C696.339 78.524 695.561 78.8393 695.004 79.47C694.461 80.086 694.168 80.9147 694.124 81.956H692.188C692.247 80.3133 692.745 79.0447 693.684 78.15C694.623 77.2553 695.833 76.808 697.314 76.808C698.825 76.808 700.02 77.226 700.9 78.062C701.795 78.898 702.242 80.0493 702.242 81.516C702.242 82.7333 701.875 83.9213 701.142 85.08C700.423 86.224 699.602 87.236 698.678 88.116C697.754 88.9813 696.573 89.9933 695.136 91.152H702.704V92.824H692.122V91.394ZM705.018 84.882C705.018 82.3593 705.429 80.394 706.25 78.986C707.072 77.5633 708.509 76.852 710.562 76.852C712.601 76.852 714.031 77.5633 714.852 78.986C715.674 80.394 716.084 82.3593 716.084 84.882C716.084 87.4487 715.674 89.4433 714.852 90.866C714.031 92.2887 712.601 93 710.562 93C708.509 93 707.072 92.2887 706.25 90.866C705.429 89.4433 705.018 87.4487 705.018 84.882ZM714.104 84.882C714.104 83.606 714.016 82.528 713.84 81.648C713.679 80.7533 713.334 80.0347 712.806 79.492C712.293 78.9493 711.545 78.678 710.562 78.678C709.565 78.678 708.802 78.9493 708.274 79.492C707.761 80.0347 707.416 80.7533 707.24 81.648C707.079 82.528 706.998 83.606 706.998 84.882C706.998 86.202 707.079 87.3093 707.24 88.204C707.416 89.0987 707.761 89.8173 708.274 90.36C708.802 90.9027 709.565 91.174 710.562 91.174C711.545 91.174 712.293 90.9027 712.806 90.36C713.334 89.8173 713.679 89.0987 713.84 88.204C714.016 87.3093 714.104 86.202 714.104 84.882ZM718.591 91.394C720.453 89.898 721.913 88.6733 722.969 87.72C724.025 86.752 724.912 85.7473 725.631 84.706C726.364 83.65 726.731 82.616 726.731 81.604C726.731 80.6507 726.496 79.9027 726.027 79.36C725.572 78.8027 724.831 78.524 723.805 78.524C722.807 78.524 722.03 78.8393 721.473 79.47C720.93 80.086 720.637 80.9147 720.593 81.956H718.657C718.715 80.3133 719.214 79.0447 720.153 78.15C721.091 77.2553 722.301 76.808 723.783 76.808C725.293 76.808 726.489 77.226 727.369 78.062C728.263 78.898 728.711 80.0493 728.711 81.516C728.711 82.7333 728.344 83.9213 727.611 85.08C726.892 86.224 726.071 87.236 725.147 88.116C724.223 88.9813 723.042 89.9933 721.605 91.152H729.173V92.824H718.591V91.394ZM731.443 81.098C731.546 79.7487 732.066 78.6927 733.005 77.93C733.944 77.1673 735.161 76.786 736.657 76.786C737.654 76.786 738.512 76.9693 739.231 77.336C739.964 77.688 740.514 78.172 740.881 78.788C741.262 79.404 741.453 80.1007 741.453 80.878C741.453 81.7873 741.189 82.572 740.661 83.232C740.148 83.892 739.473 84.3173 738.637 84.508V84.618C739.59 84.8527 740.346 85.3147 740.903 86.004C741.46 86.6933 741.739 87.5953 741.739 88.71C741.739 89.546 741.548 90.3013 741.167 90.976C740.786 91.636 740.214 92.1567 739.451 92.538C738.688 92.9193 737.772 93.11 736.701 93.11C735.146 93.11 733.87 92.7067 732.873 91.9C731.876 91.0787 731.318 89.92 731.201 88.424H733.137C733.24 89.304 733.599 90.0227 734.215 90.58C734.831 91.1373 735.652 91.416 736.679 91.416C737.706 91.416 738.483 91.152 739.011 90.624C739.554 90.0813 739.825 89.3847 739.825 88.534C739.825 87.434 739.458 86.642 738.725 86.158C737.992 85.674 736.884 85.432 735.403 85.432H734.897V83.76H735.425C736.774 83.7453 737.794 83.5253 738.483 83.1C739.172 82.66 739.517 81.9853 739.517 81.076C739.517 80.2987 739.26 79.6753 738.747 79.206C738.248 78.7367 737.53 78.502 736.591 78.502C735.682 78.502 734.948 78.7367 734.391 79.206C733.834 79.6753 733.504 80.306 733.401 81.098H731.443ZM753.132 84.09V85.784H744.354V84.09H753.132ZM756.317 91.394C758.18 89.898 759.639 88.6733 760.695 87.72C761.751 86.752 762.639 85.7473 763.357 84.706C764.091 83.65 764.457 82.616 764.457 81.604C764.457 80.6507 764.223 79.9027 763.753 79.36C763.299 78.8027 762.558 78.524 761.531 78.524C760.534 78.524 759.757 78.8393 759.199 79.47C758.657 80.086 758.363 80.9147 758.319 81.956H756.383C756.442 80.3133 756.941 79.0447 757.879 78.15C758.818 77.2553 760.028 76.808 761.509 76.808C763.02 76.808 764.215 77.226 765.095 78.062C765.99 78.898 766.437 80.0493 766.437 81.516C766.437 82.7333 766.071 83.9213 765.337 85.08C764.619 86.224 763.797 87.236 762.873 88.116C761.949 88.9813 760.769 89.9933 759.331 91.152H766.899V92.824H756.317V91.394ZM769.214 84.882C769.214 82.3593 769.624 80.394 770.446 78.986C771.267 77.5633 772.704 76.852 774.758 76.852C776.796 76.852 778.226 77.5633 779.048 78.986C779.869 80.394 780.28 82.3593 780.28 84.882C780.28 87.4487 779.869 89.4433 779.048 90.866C778.226 92.2887 776.796 93 774.758 93C772.704 93 771.267 92.2887 770.446 90.866C769.624 89.4433 769.214 87.4487 769.214 84.882ZM778.3 84.882C778.3 83.606 778.212 82.528 778.036 81.648C777.874 80.7533 777.53 80.0347 777.002 79.492C776.488 78.9493 775.74 78.678 774.758 78.678C773.76 78.678 772.998 78.9493 772.47 79.492C771.956 80.0347 771.612 80.7533 771.436 81.648C771.274 82.528 771.194 83.606 771.194 84.882C771.194 86.202 771.274 87.3093 771.436 88.204C771.612 89.0987 771.956 89.8173 772.47 90.36C772.998 90.9027 773.76 91.174 774.758 91.174C775.74 91.174 776.488 90.9027 777.002 90.36C777.53 89.8173 777.874 89.0987 778.036 88.204C778.212 87.3093 778.3 86.202 778.3 84.882ZM782.786 91.394C784.649 89.898 786.108 88.6733 787.164 87.72C788.22 86.752 789.107 85.7473 789.826 84.706C790.559 83.65 790.926 82.616 790.926 81.604C790.926 80.6507 790.691 79.9027 790.222 79.36C789.767 78.8027 789.027 78.524 788 78.524C787.003 78.524 786.225 78.8393 785.668 79.47C785.125 80.086 784.832 80.9147 784.788 81.956H782.852C782.911 80.3133 783.409 79.0447 784.348 78.15C785.287 77.2553 786.497 76.808 787.978 76.808C789.489 76.808 790.684 77.226 791.564 78.062C792.459 78.898 792.906 80.0493 792.906 81.516C792.906 82.7333 792.539 83.9213 791.806 85.08C791.087 86.224 790.266 87.236 789.342 88.116C788.418 88.9813 787.237 89.9933 785.8 91.152H793.368V92.824H782.786V91.394ZM795.198 89.458V87.94L802.92 77.248H805.318V87.72H807.518V89.458H805.318V93H803.338V89.458H795.198ZM803.426 79.338L797.508 87.72H803.426V79.338Z" fill="#F37021"/>
<path d="M697.816 121.256C698.221 121.32 698.589 121.485 698.92 121.752C699.261 122.019 699.528 122.349 699.72 122.744C699.923 123.139 700.024 123.56 700.024 124.008C700.024 124.573 699.88 125.085 699.592 125.544C699.304 125.992 698.883 126.349 698.328 126.616C697.784 126.872 697.139 127 696.392 127H692.232V115.848H696.232C696.989 115.848 697.635 115.976 698.168 116.232C698.701 116.477 699.101 116.813 699.368 117.24C699.635 117.667 699.768 118.147 699.768 118.68C699.768 119.341 699.587 119.891 699.224 120.328C698.872 120.755 698.403 121.064 697.816 121.256ZM693.688 120.664H696.136C696.819 120.664 697.347 120.504 697.72 120.184C698.093 119.864 698.28 119.421 698.28 118.856C698.28 118.291 698.093 117.848 697.72 117.528C697.347 117.208 696.808 117.048 696.104 117.048H693.688V120.664ZM696.264 125.8C696.989 125.8 697.555 125.629 697.96 125.288C698.365 124.947 698.568 124.472 698.568 123.864C698.568 123.245 698.355 122.76 697.928 122.408C697.501 122.045 696.931 121.864 696.216 121.864H693.688V125.8H696.264ZM708.909 115.848V117.032H705.869V127H704.413V117.032H701.357V115.848H708.909ZM718.701 122.28C718.701 122.557 718.685 122.851 718.653 123.16H711.645C711.698 124.024 711.991 124.701 712.525 125.192C713.069 125.672 713.725 125.912 714.493 125.912C715.122 125.912 715.645 125.768 716.061 125.48C716.487 125.181 716.786 124.787 716.957 124.296H718.525C718.29 125.139 717.821 125.827 717.117 126.36C716.413 126.883 715.538 127.144 714.493 127.144C713.661 127.144 712.914 126.957 712.253 126.584C711.602 126.211 711.09 125.683 710.717 125C710.343 124.307 710.157 123.507 710.157 122.6C710.157 121.693 710.338 120.899 710.701 120.216C711.063 119.533 711.57 119.011 712.221 118.648C712.882 118.275 713.639 118.088 714.493 118.088C715.325 118.088 716.061 118.269 716.701 118.632C717.341 118.995 717.831 119.496 718.173 120.136C718.525 120.765 718.701 121.48 718.701 122.28ZM717.197 121.976C717.197 121.421 717.074 120.947 716.829 120.552C716.583 120.147 716.247 119.843 715.821 119.64C715.405 119.427 714.941 119.32 714.429 119.32C713.693 119.32 713.063 119.555 712.541 120.024C712.029 120.493 711.735 121.144 711.661 121.976H717.197ZM720.079 122.6C720.079 121.693 720.26 120.904 720.623 120.232C720.985 119.549 721.487 119.021 722.127 118.648C722.777 118.275 723.519 118.088 724.351 118.088C725.428 118.088 726.313 118.349 727.007 118.872C727.711 119.395 728.175 120.12 728.399 121.048H726.831C726.681 120.515 726.388 120.093 725.951 119.784C725.524 119.475 724.991 119.32 724.351 119.32C723.519 119.32 722.847 119.608 722.335 120.184C721.823 120.749 721.567 121.555 721.567 122.6C721.567 123.656 721.823 124.472 722.335 125.048C722.847 125.624 723.519 125.912 724.351 125.912C724.991 125.912 725.524 125.763 725.951 125.464C726.377 125.165 726.671 124.739 726.831 124.184H728.399C728.164 125.08 727.695 125.8 726.991 126.344C726.287 126.877 725.407 127.144 724.351 127.144C723.519 127.144 722.777 126.957 722.127 126.584C721.487 126.211 720.985 125.683 720.623 125C720.26 124.317 720.079 123.517 720.079 122.6ZM734.693 118.072C735.355 118.072 735.952 118.216 736.485 118.504C737.019 118.781 737.435 119.203 737.733 119.768C738.043 120.333 738.197 121.021 738.197 121.832V127H736.757V122.04C736.757 121.165 736.539 120.499 736.101 120.04C735.664 119.571 735.067 119.336 734.309 119.336C733.541 119.336 732.928 119.576 732.469 120.056C732.021 120.536 731.797 121.235 731.797 122.152V127H730.341V115.16H731.797V119.48C732.085 119.032 732.48 118.685 732.981 118.44C733.493 118.195 734.064 118.072 734.693 118.072ZM746.665 128.696H745.209V114.28H746.665V128.696ZM753.219 121.416C753.219 120.328 753.465 119.352 753.955 118.488C754.446 117.613 755.113 116.931 755.955 116.44C756.809 115.949 757.753 115.704 758.787 115.704C760.003 115.704 761.065 115.997 761.971 116.584C762.878 117.171 763.539 118.003 763.955 119.08H762.211C761.902 118.408 761.454 117.891 760.867 117.528C760.291 117.165 759.598 116.984 758.787 116.984C758.009 116.984 757.31 117.165 756.691 117.528C756.073 117.891 755.587 118.408 755.235 119.08C754.883 119.741 754.707 120.52 754.707 121.416C754.707 122.301 754.883 123.08 755.235 123.752C755.587 124.413 756.073 124.925 756.691 125.288C757.31 125.651 758.009 125.832 758.787 125.832C759.598 125.832 760.291 125.656 760.867 125.304C761.454 124.941 761.902 124.424 762.211 123.752H763.955C763.539 124.819 762.878 125.645 761.971 126.232C761.065 126.808 760.003 127.096 758.787 127.096C757.753 127.096 756.809 126.856 755.955 126.376C755.113 125.885 754.446 125.208 753.955 124.344C753.465 123.48 753.219 122.504 753.219 121.416ZM769.947 127.144C769.125 127.144 768.379 126.957 767.707 126.584C767.045 126.211 766.523 125.683 766.139 125C765.765 124.307 765.579 123.507 765.579 122.6C765.579 121.704 765.771 120.915 766.155 120.232C766.549 119.539 767.083 119.011 767.755 118.648C768.427 118.275 769.179 118.088 770.011 118.088C770.843 118.088 771.595 118.275 772.267 118.648C772.939 119.011 773.467 119.533 773.851 120.216C774.245 120.899 774.443 121.693 774.443 122.6C774.443 123.507 774.24 124.307 773.835 125C773.44 125.683 772.901 126.211 772.219 126.584C771.536 126.957 770.779 127.144 769.947 127.144ZM769.947 125.864C770.469 125.864 770.96 125.741 771.419 125.496C771.877 125.251 772.245 124.883 772.523 124.392C772.811 123.901 772.955 123.304 772.955 122.6C772.955 121.896 772.816 121.299 772.539 120.808C772.261 120.317 771.899 119.955 771.451 119.72C771.003 119.475 770.517 119.352 769.995 119.352C769.461 119.352 768.971 119.475 768.523 119.72C768.085 119.955 767.733 120.317 767.467 120.808C767.2 121.299 767.067 121.896 767.067 122.6C767.067 123.315 767.195 123.917 767.451 124.408C767.717 124.899 768.069 125.267 768.507 125.512C768.944 125.747 769.424 125.864 769.947 125.864ZM786.901 118.072C787.584 118.072 788.192 118.216 788.725 118.504C789.258 118.781 789.68 119.203 789.989 119.768C790.298 120.333 790.453 121.021 790.453 121.832V127H789.013V122.04C789.013 121.165 788.794 120.499 788.357 120.04C787.93 119.571 787.349 119.336 786.613 119.336C785.856 119.336 785.253 119.581 784.805 120.072C784.357 120.552 784.133 121.251 784.133 122.168V127H782.693V122.04C782.693 121.165 782.474 120.499 782.037 120.04C781.61 119.571 781.029 119.336 780.293 119.336C779.536 119.336 778.933 119.581 778.485 120.072C778.037 120.552 777.813 121.251 777.813 122.168V127H776.357V118.232H777.813V119.496C778.101 119.037 778.485 118.685 778.965 118.44C779.456 118.195 779.994 118.072 780.581 118.072C781.317 118.072 781.968 118.237 782.533 118.568C783.098 118.899 783.52 119.384 783.797 120.024C784.042 119.405 784.448 118.925 785.013 118.584C785.578 118.243 786.208 118.072 786.901 118.072ZM794.297 119.848C794.585 119.347 795.012 118.931 795.577 118.6C796.153 118.259 796.82 118.088 797.577 118.088C798.356 118.088 799.06 118.275 799.689 118.648C800.329 119.021 800.831 119.549 801.193 120.232C801.556 120.904 801.737 121.688 801.737 122.584C801.737 123.469 801.556 124.259 801.193 124.952C800.831 125.645 800.329 126.184 799.689 126.568C799.06 126.952 798.356 127.144 797.577 127.144C796.831 127.144 796.169 126.979 795.593 126.648C795.028 126.307 794.596 125.885 794.297 125.384V131.16H792.841V118.232H794.297V119.848ZM800.249 122.584C800.249 121.923 800.116 121.347 799.849 120.856C799.583 120.365 799.22 119.992 798.761 119.736C798.313 119.48 797.817 119.352 797.273 119.352C796.74 119.352 796.244 119.485 795.785 119.752C795.337 120.008 794.975 120.387 794.697 120.888C794.431 121.379 794.297 121.949 794.297 122.6C794.297 123.261 794.431 123.843 794.697 124.344C794.975 124.835 795.337 125.213 795.785 125.48C796.244 125.736 796.74 125.864 797.273 125.864C797.817 125.864 798.313 125.736 798.761 125.48C799.22 125.213 799.583 124.835 799.849 124.344C800.116 123.843 800.249 123.256 800.249 122.584ZM811.43 118.232V127H809.974V125.704C809.697 126.152 809.307 126.504 808.806 126.76C808.315 127.005 807.771 127.128 807.174 127.128C806.491 127.128 805.878 126.989 805.334 126.712C804.79 126.424 804.358 125.997 804.038 125.432C803.729 124.867 803.574 124.179 803.574 123.368V118.232H805.014V123.176C805.014 124.04 805.233 124.707 805.67 125.176C806.107 125.635 806.705 125.864 807.462 125.864C808.241 125.864 808.854 125.624 809.302 125.144C809.75 124.664 809.974 123.965 809.974 123.048V118.232H811.43ZM815.664 119.432V124.6C815.664 125.027 815.755 125.331 815.936 125.512C816.118 125.683 816.432 125.768 816.88 125.768H817.952V127H816.64C815.83 127 815.222 126.813 814.816 126.44C814.411 126.067 814.208 125.453 814.208 124.6V119.432H813.072V118.232H814.208V116.024H815.664V118.232H817.952V119.432H815.664ZM827.716 122.28C827.716 122.557 827.7 122.851 827.668 123.16H820.66C820.714 124.024 821.007 124.701 821.54 125.192C822.084 125.672 822.74 125.912 823.508 125.912C824.138 125.912 824.66 125.768 825.076 125.48C825.503 125.181 825.802 124.787 825.972 124.296H827.54C827.306 125.139 826.836 125.827 826.132 126.36C825.428 126.883 824.554 127.144 823.508 127.144C822.676 127.144 821.93 126.957 821.268 126.584C820.618 126.211 820.106 125.683 819.732 125C819.359 124.307 819.172 123.507 819.172 122.6C819.172 121.693 819.354 120.899 819.716 120.216C820.079 119.533 820.586 119.011 821.236 118.648C821.898 118.275 822.655 118.088 823.508 118.088C824.34 118.088 825.076 118.269 825.716 118.632C826.356 118.995 826.847 119.496 827.188 120.136C827.54 120.765 827.716 121.48 827.716 122.28ZM826.212 121.976C826.212 121.421 826.09 120.947 825.844 120.552C825.599 120.147 825.263 119.843 824.836 119.64C824.42 119.427 823.956 119.32 823.444 119.32C822.708 119.32 822.079 119.555 821.556 120.024C821.044 120.493 820.751 121.144 820.676 121.976H826.212ZM831.094 119.656C831.35 119.155 831.713 118.765 832.182 118.488C832.662 118.211 833.244 118.072 833.926 118.072V119.576H833.542C831.91 119.576 831.094 120.461 831.094 122.232V127H829.638V118.232H831.094V119.656ZM843.409 127.112C842.673 127.112 842.011 126.984 841.425 126.728C840.849 126.461 840.395 126.099 840.065 125.64C839.734 125.171 839.563 124.632 839.553 124.024H841.105C841.158 124.547 841.371 124.989 841.745 125.352C842.129 125.704 842.683 125.88 843.409 125.88C844.102 125.88 844.646 125.709 845.041 125.368C845.446 125.016 845.649 124.568 845.649 124.024C845.649 123.597 845.531 123.251 845.297 122.984C845.062 122.717 844.769 122.515 844.417 122.376C844.065 122.237 843.59 122.088 842.993 121.928C842.257 121.736 841.665 121.544 841.217 121.352C840.779 121.16 840.401 120.861 840.081 120.456C839.771 120.04 839.617 119.485 839.617 118.792C839.617 118.184 839.771 117.645 840.081 117.176C840.39 116.707 840.822 116.344 841.377 116.088C841.942 115.832 842.587 115.704 843.313 115.704C844.358 115.704 845.211 115.965 845.873 116.488C846.545 117.011 846.923 117.704 847.009 118.568H845.409C845.355 118.141 845.131 117.768 844.737 117.448C844.342 117.117 843.819 116.952 843.169 116.952C842.561 116.952 842.065 117.112 841.681 117.432C841.297 117.741 841.105 118.179 841.105 118.744C841.105 119.149 841.217 119.48 841.441 119.736C841.675 119.992 841.958 120.189 842.289 120.328C842.63 120.456 843.105 120.605 843.713 120.776C844.449 120.979 845.041 121.181 845.489 121.384C845.937 121.576 846.321 121.88 846.641 122.296C846.961 122.701 847.121 123.256 847.121 123.96C847.121 124.504 846.977 125.016 846.689 125.496C846.401 125.976 845.974 126.365 845.409 126.664C844.843 126.963 844.177 127.112 843.409 127.112ZM848.719 122.6C848.719 121.693 848.901 120.904 849.263 120.232C849.626 119.549 850.127 119.021 850.767 118.648C851.418 118.275 852.159 118.088 852.991 118.088C854.069 118.088 854.954 118.349 855.647 118.872C856.351 119.395 856.815 120.12 857.039 121.048H855.471C855.322 120.515 855.029 120.093 854.591 119.784C854.165 119.475 853.631 119.32 852.991 119.32C852.159 119.32 851.487 119.608 850.975 120.184C850.463 120.749 850.207 121.555 850.207 122.6C850.207 123.656 850.463 124.472 850.975 125.048C851.487 125.624 852.159 125.912 852.991 125.912C853.631 125.912 854.165 125.763 854.591 125.464C855.018 125.165 855.311 124.739 855.471 124.184H857.039C856.805 125.08 856.335 125.8 855.631 126.344C854.927 126.877 854.047 127.144 852.991 127.144C852.159 127.144 851.418 126.957 850.767 126.584C850.127 126.211 849.626 125.683 849.263 125C848.901 124.317 848.719 123.517 848.719 122.6ZM859.734 116.808C859.457 116.808 859.222 116.712 859.03 116.52C858.838 116.328 858.742 116.093 858.742 115.816C858.742 115.539 858.838 115.304 859.03 115.112C859.222 114.92 859.457 114.824 859.734 114.824C860.001 114.824 860.225 114.92 860.406 115.112C860.598 115.304 860.694 115.539 860.694 115.816C860.694 116.093 860.598 116.328 860.406 116.52C860.225 116.712 860.001 116.808 859.734 116.808ZM860.438 118.232V127H858.982V118.232H860.438ZM870.92 122.28C870.92 122.557 870.904 122.851 870.872 123.16H863.864C863.917 124.024 864.21 124.701 864.744 125.192C865.288 125.672 865.944 125.912 866.712 125.912C867.341 125.912 867.864 125.768 868.28 125.48C868.706 125.181 869.005 124.787 869.176 124.296H870.744C870.509 125.139 870.04 125.827 869.336 126.36C868.632 126.883 867.757 127.144 866.712 127.144C865.88 127.144 865.133 126.957 864.472 126.584C863.821 126.211 863.309 125.683 862.936 125C862.562 124.307 862.376 123.507 862.376 122.6C862.376 121.693 862.557 120.899 862.92 120.216C863.282 119.533 863.789 119.011 864.44 118.648C865.101 118.275 865.858 118.088 866.712 118.088C867.544 118.088 868.28 118.269 868.92 118.632C869.56 118.995 870.05 119.496 870.392 120.136C870.744 120.765 870.92 121.48 870.92 122.28ZM869.416 121.976C869.416 121.421 869.293 120.947 869.048 120.552C868.802 120.147 868.466 119.843 868.04 119.64C867.624 119.427 867.16 119.32 866.648 119.32C865.912 119.32 865.282 119.555 864.76 120.024C864.248 120.493 863.954 121.144 863.88 121.976H869.416ZM877.113 118.072C878.18 118.072 879.044 118.397 879.705 119.048C880.367 119.688 880.697 120.616 880.697 121.832V127H879.257V122.04C879.257 121.165 879.039 120.499 878.601 120.04C878.164 119.571 877.567 119.336 876.809 119.336C876.041 119.336 875.428 119.576 874.969 120.056C874.521 120.536 874.297 121.235 874.297 122.152V127H872.841V118.232H874.297V119.48C874.585 119.032 874.975 118.685 875.465 118.44C875.967 118.195 876.516 118.072 877.113 118.072ZM882.532 122.6C882.532 121.693 882.713 120.904 883.076 120.232C883.438 119.549 883.94 119.021 884.58 118.648C885.23 118.275 885.972 118.088 886.804 118.088C887.881 118.088 888.766 118.349 889.46 118.872C890.164 119.395 890.628 120.12 890.852 121.048H889.284C889.134 120.515 888.841 120.093 888.404 119.784C887.977 119.475 887.444 119.32 886.804 119.32C885.972 119.32 885.3 119.608 884.788 120.184C884.276 120.749 884.02 121.555 884.02 122.6C884.02 123.656 884.276 124.472 884.788 125.048C885.3 125.624 885.972 125.912 886.804 125.912C887.444 125.912 887.977 125.763 888.404 125.464C888.83 125.165 889.124 124.739 889.284 124.184H890.852C890.617 125.08 890.148 125.8 889.444 126.344C888.74 126.877 887.86 127.144 886.804 127.144C885.972 127.144 885.23 126.957 884.58 126.584C883.94 126.211 883.438 125.683 883.076 125C882.713 124.317 882.532 123.517 882.532 122.6ZM900.795 122.28C900.795 122.557 900.779 122.851 900.747 123.16H893.739C893.792 124.024 894.085 124.701 894.619 125.192C895.163 125.672 895.819 125.912 896.587 125.912C897.216 125.912 897.739 125.768 898.155 125.48C898.581 125.181 898.88 124.787 899.051 124.296H900.619C900.384 125.139 899.915 125.827 899.211 126.36C898.507 126.883 897.632 127.144 896.587 127.144C895.755 127.144 895.008 126.957 894.347 126.584C893.696 126.211 893.184 125.683 892.811 125C892.437 124.307 892.251 123.507 892.251 122.6C892.251 121.693 892.432 120.899 892.795 120.216C893.157 119.533 893.664 119.011 894.315 118.648C894.976 118.275 895.733 118.088 896.587 118.088C897.419 118.088 898.155 118.269 898.795 118.632C899.435 118.995 899.925 119.496 900.267 120.136C900.619 120.765 900.795 121.48 900.795 122.28ZM899.291 121.976C899.291 121.421 899.168 120.947 898.923 120.552C898.677 120.147 898.341 119.843 897.915 119.64C897.499 119.427 897.035 119.32 896.523 119.32C895.787 119.32 895.157 119.555 894.635 120.024C894.123 120.493 893.829 121.144 893.755 121.976H899.291Z" fill="black"/>
<circle cx="1188" cy="88" r="57.5" stroke="black" stroke-opacity="0.15"/>
<g filter="url(#filter2_d_0_76)">
<rect x="4" y="202" width="613" height="176" rx="20" fill="white"/>
</g>
<path d="M39.9 262.175C38.6167 262.175 37.4667 261.967 36.45 261.55C35.4333 261.133 34.6167 260.517 34 259.7C33.4 258.883 33.0833 257.9 33.05 256.75H37.6C37.6667 257.4 37.8917 257.9 38.275 258.25C38.6583 258.583 39.1583 258.75 39.775 258.75C40.4083 258.75 40.9083 258.608 41.275 258.325C41.6417 258.025 41.825 257.617 41.825 257.1C41.825 256.667 41.675 256.308 41.375 256.025C41.0917 255.742 40.7333 255.508 40.3 255.325C39.8833 255.142 39.2833 254.933 38.5 254.7C37.3667 254.35 36.4417 254 35.725 253.65C35.0083 253.3 34.3917 252.783 33.875 252.1C33.3583 251.417 33.1 250.525 33.1 249.425C33.1 247.792 33.6917 246.517 34.875 245.6C36.0583 244.667 37.6 244.2 39.5 244.2C41.4333 244.2 42.9917 244.667 44.175 245.6C45.3583 246.517 45.9917 247.8 46.075 249.45H41.45C41.4167 248.883 41.2083 248.442 40.825 248.125C40.4417 247.792 39.95 247.625 39.35 247.625C38.8333 247.625 38.4167 247.767 38.1 248.05C37.7833 248.317 37.625 248.708 37.625 249.225C37.625 249.792 37.8917 250.233 38.425 250.55C38.9583 250.867 39.7917 251.208 40.925 251.575C42.0583 251.958 42.975 252.325 43.675 252.675C44.3917 253.025 45.0083 253.533 45.525 254.2C46.0417 254.867 46.3 255.725 46.3 256.775C46.3 257.775 46.0417 258.683 45.525 259.5C45.025 260.317 44.2917 260.967 43.325 261.45C42.3583 261.933 41.2167 262.175 39.9 262.175ZM48.0809 255.025C48.0809 253.575 48.3725 252.308 48.9559 251.225C49.5559 250.142 50.3809 249.308 51.4309 248.725C52.4975 248.142 53.7142 247.85 55.0809 247.85C56.8309 247.85 58.2892 248.308 59.4559 249.225C60.6392 250.142 61.4142 251.433 61.7809 253.1H57.2309C56.8475 252.033 56.1059 251.5 55.0059 251.5C54.2225 251.5 53.5975 251.808 53.1309 252.425C52.6642 253.025 52.4309 253.892 52.4309 255.025C52.4309 256.158 52.6642 257.033 53.1309 257.65C53.5975 258.25 54.2225 258.55 55.0059 258.55C56.1059 258.55 56.8475 258.017 57.2309 256.95H61.7809C61.4142 258.583 60.6392 259.867 59.4559 260.8C58.2725 261.733 56.8142 262.2 55.0809 262.2C53.7142 262.2 52.4975 261.908 51.4309 261.325C50.3809 260.742 49.5559 259.908 48.9559 258.825C48.3725 257.742 48.0809 256.475 48.0809 255.025ZM72.6426 247.9C74.2426 247.9 75.5259 248.433 76.4926 249.5C77.4592 250.55 77.9426 252 77.9426 253.85V262H73.6926V254.425C73.6926 253.492 73.4509 252.767 72.9676 252.25C72.4842 251.733 71.8342 251.475 71.0176 251.475C70.2009 251.475 69.5509 251.733 69.0676 252.25C68.5842 252.767 68.3426 253.492 68.3426 254.425V262H64.0676V243.5H68.3426V249.925C68.7759 249.308 69.3676 248.817 70.1176 248.45C70.8676 248.083 71.7092 247.9 72.6426 247.9ZM87.2633 262.2C85.8966 262.2 84.6633 261.908 83.5633 261.325C82.4799 260.742 81.6216 259.908 80.9883 258.825C80.3716 257.742 80.0633 256.475 80.0633 255.025C80.0633 253.592 80.3799 252.333 81.0133 251.25C81.6466 250.15 82.5133 249.308 83.6133 248.725C84.7133 248.142 85.9466 247.85 87.3133 247.85C88.6799 247.85 89.9133 248.142 91.0133 248.725C92.1133 249.308 92.9799 250.15 93.6133 251.25C94.2466 252.333 94.5633 253.592 94.5633 255.025C94.5633 256.458 94.2383 257.725 93.5883 258.825C92.9549 259.908 92.0799 260.742 90.9633 261.325C89.8633 261.908 88.6299 262.2 87.2633 262.2ZM87.2633 258.5C88.0799 258.5 88.7716 258.2 89.3383 257.6C89.9216 257 90.2133 256.142 90.2133 255.025C90.2133 253.908 89.9299 253.05 89.3633 252.45C88.8133 251.85 88.1299 251.55 87.3133 251.55C86.4799 251.55 85.7883 251.85 85.2383 252.45C84.6883 253.033 84.4133 253.892 84.4133 255.025C84.4133 256.142 84.6799 257 85.2133 257.6C85.7633 258.2 86.4466 258.5 87.2633 258.5ZM103.181 262.2C101.815 262.2 100.581 261.908 99.4813 261.325C98.3979 260.742 97.5396 259.908 96.9063 258.825C96.2896 257.742 95.9813 256.475 95.9813 255.025C95.9813 253.592 96.2979 252.333 96.9312 251.25C97.5646 250.15 98.4313 249.308 99.5313 248.725C100.631 248.142 101.865 247.85 103.231 247.85C104.598 247.85 105.831 248.142 106.931 248.725C108.031 249.308 108.898 250.15 109.531 251.25C110.165 252.333 110.481 253.592 110.481 255.025C110.481 256.458 110.156 257.725 109.506 258.825C108.873 259.908 107.998 260.742 106.881 261.325C105.781 261.908 104.548 262.2 103.181 262.2ZM103.181 258.5C103.998 258.5 104.69 258.2 105.256 257.6C105.84 257 106.131 256.142 106.131 255.025C106.131 253.908 105.848 253.05 105.281 252.45C104.731 251.85 104.048 251.55 103.231 251.55C102.398 251.55 101.706 251.85 101.156 252.45C100.606 253.033 100.331 253.892 100.331 255.025C100.331 256.142 100.598 257 101.131 257.6C101.681 258.2 102.365 258.5 103.181 258.5ZM117.024 243.5V262H112.749V243.5H117.024ZM133.92 247.9C135.553 247.9 136.853 248.433 137.82 249.5C138.803 250.55 139.295 252 139.295 253.85V262H135.045V254.425C135.045 253.492 134.803 252.767 134.32 252.25C133.837 251.733 133.187 251.475 132.37 251.475C131.553 251.475 130.903 251.733 130.42 252.25C129.937 252.767 129.695 253.492 129.695 254.425V262H125.42V248.05H129.695V249.9C130.128 249.283 130.712 248.8 131.445 248.45C132.178 248.083 133.003 247.9 133.92 247.9ZM141.416 255C141.416 253.567 141.682 252.308 142.216 251.225C142.766 250.142 143.507 249.308 144.441 248.725C145.374 248.142 146.416 247.85 147.566 247.85C148.549 247.85 149.407 248.05 150.141 248.45C150.891 248.85 151.466 249.375 151.866 250.025V248.05H156.141V262H151.866V260.025C151.449 260.675 150.866 261.2 150.116 261.6C149.382 262 148.524 262.2 147.541 262.2C146.407 262.2 145.374 261.908 144.441 261.325C143.507 260.725 142.766 259.883 142.216 258.8C141.682 257.7 141.416 256.433 141.416 255ZM151.866 255.025C151.866 253.958 151.566 253.117 150.966 252.5C150.382 251.883 149.666 251.575 148.816 251.575C147.966 251.575 147.241 251.883 146.641 252.5C146.057 253.1 145.766 253.933 145.766 255C145.766 256.067 146.057 256.917 146.641 257.55C147.241 258.167 147.966 258.475 148.816 258.475C149.666 258.475 150.382 258.167 150.966 257.55C151.566 256.933 151.866 256.092 151.866 255.025ZM177.034 247.9C178.767 247.9 180.142 248.425 181.159 249.475C182.192 250.525 182.709 251.983 182.709 253.85V262H178.459V254.425C178.459 253.525 178.217 252.833 177.734 252.35C177.267 251.85 176.617 251.6 175.784 251.6C174.95 251.6 174.292 251.85 173.809 252.35C173.342 252.833 173.109 253.525 173.109 254.425V262H168.859V254.425C168.859 253.525 168.617 252.833 168.134 252.35C167.667 251.85 167.017 251.6 166.184 251.6C165.35 251.6 164.692 251.85 164.209 252.35C163.742 252.833 163.509 253.525 163.509 254.425V262H159.234V248.05H163.509V249.8C163.942 249.217 164.509 248.758 165.209 248.425C165.909 248.075 166.7 247.9 167.584 247.9C168.634 247.9 169.567 248.125 170.384 248.575C171.217 249.025 171.867 249.667 172.334 250.5C172.817 249.733 173.475 249.108 174.309 248.625C175.142 248.142 176.05 247.9 177.034 247.9ZM198.848 254.8C198.848 255.2 198.823 255.617 198.773 256.05H189.098C189.165 256.917 189.44 257.583 189.923 258.05C190.423 258.5 191.032 258.725 191.748 258.725C192.815 258.725 193.557 258.275 193.973 257.375H198.523C198.29 258.292 197.865 259.117 197.248 259.85C196.648 260.583 195.89 261.158 194.973 261.575C194.057 261.992 193.032 262.2 191.898 262.2C190.532 262.2 189.315 261.908 188.248 261.325C187.182 260.742 186.348 259.908 185.748 258.825C185.148 257.742 184.848 256.475 184.848 255.025C184.848 253.575 185.14 252.308 185.723 251.225C186.323 250.142 187.157 249.308 188.223 248.725C189.29 248.142 190.515 247.85 191.898 247.85C193.248 247.85 194.448 248.133 195.498 248.7C196.548 249.267 197.365 250.075 197.948 251.125C198.548 252.175 198.848 253.4 198.848 254.8ZM194.473 253.675C194.473 252.942 194.223 252.358 193.723 251.925C193.223 251.492 192.598 251.275 191.848 251.275C191.132 251.275 190.523 251.483 190.023 251.9C189.54 252.317 189.24 252.908 189.123 253.675H194.473Z" fill="black"/>
<path d="M33.122 293.394C34.9847 291.898 36.444 290.673 37.5 289.72C38.556 288.752 39.4433 287.747 40.162 286.706C40.8953 285.65 41.262 284.616 41.262 283.604C41.262 282.651 41.0273 281.903 40.558 281.36C40.1033 280.803 39.3627 280.524 38.336 280.524C37.3387 280.524 36.5613 280.839 36.004 281.47C35.4613 282.086 35.168 282.915 35.124 283.956H33.188C33.2467 282.313 33.7453 281.045 34.684 280.15C35.6227 279.255 36.8327 278.808 38.314 278.808C39.8247 278.808 41.02 279.226 41.9 280.062C42.7947 280.898 43.242 282.049 43.242 283.516C43.242 284.733 42.8753 285.921 42.142 287.08C41.4233 288.224 40.602 289.236 39.678 290.116C38.754 290.981 37.5733 291.993 36.136 293.152H43.704V294.824H33.122V293.394ZM46.0183 286.882C46.0183 284.359 46.429 282.394 47.2503 280.986C48.0716 279.563 49.509 278.852 51.5623 278.852C53.601 278.852 55.031 279.563 55.8523 280.986C56.6736 282.394 57.0843 284.359 57.0843 286.882C57.0843 289.449 56.6736 291.443 55.8523 292.866C55.031 294.289 53.601 295 51.5623 295C49.509 295 48.0716 294.289 47.2503 292.866C46.429 291.443 46.0183 289.449 46.0183 286.882ZM55.1043 286.882C55.1043 285.606 55.0163 284.528 54.8403 283.648C54.679 282.753 54.3343 282.035 53.8063 281.492C53.293 280.949 52.545 280.678 51.5623 280.678C50.565 280.678 49.8023 280.949 49.2743 281.492C48.761 282.035 48.4163 282.753 48.2403 283.648C48.079 284.528 47.9983 285.606 47.9983 286.882C47.9983 288.202 48.079 289.309 48.2403 290.204C48.4163 291.099 48.761 291.817 49.2743 292.36C49.8023 292.903 50.565 293.174 51.5623 293.174C52.545 293.174 53.293 292.903 53.8063 292.36C54.3343 291.817 54.679 291.099 54.8403 290.204C55.0163 289.309 55.1043 288.202 55.1043 286.882ZM59.5908 293.394C61.4534 291.898 62.9128 290.673 63.9688 289.72C65.0248 288.752 65.9121 287.747 66.6308 286.706C67.3641 285.65 67.7308 284.616 67.7308 283.604C67.7308 282.651 67.4961 281.903 67.0268 281.36C66.5721 280.803 65.8314 280.524 64.8048 280.524C63.8074 280.524 63.0301 280.839 62.4728 281.47C61.9301 282.086 61.6368 282.915 61.5928 283.956H59.6568C59.7154 282.313 60.2141 281.045 61.1528 280.15C62.0914 279.255 63.3014 278.808 64.7828 278.808C66.2934 278.808 67.4888 279.226 68.3688 280.062C69.2634 280.898 69.7108 282.049 69.7108 283.516C69.7108 284.733 69.3441 285.921 68.6108 287.08C67.8921 288.224 67.0708 289.236 66.1468 290.116C65.2228 290.981 64.0421 291.993 62.6048 293.152H70.1728V294.824H59.5908V293.394ZM72.443 283.098C72.5457 281.749 73.0664 280.693 74.005 279.93C74.9437 279.167 76.161 278.786 77.657 278.786C78.6544 278.786 79.5124 278.969 80.231 279.336C80.9644 279.688 81.5144 280.172 81.881 280.788C82.2624 281.404 82.453 282.101 82.453 282.878C82.453 283.787 82.189 284.572 81.661 285.232C81.1477 285.892 80.473 286.317 79.637 286.508V286.618C80.5904 286.853 81.3457 287.315 81.903 288.004C82.4604 288.693 82.739 289.595 82.739 290.71C82.739 291.546 82.5484 292.301 82.167 292.976C81.7857 293.636 81.2137 294.157 80.451 294.538C79.6884 294.919 78.7717 295.11 77.701 295.11C76.1464 295.11 74.8704 294.707 73.873 293.9C72.8757 293.079 72.3184 291.92 72.201 290.424H74.137C74.2397 291.304 74.599 292.023 75.215 292.58C75.831 293.137 76.6524 293.416 77.679 293.416C78.7057 293.416 79.483 293.152 80.011 292.624C80.5537 292.081 80.825 291.385 80.825 290.534C80.825 289.434 80.4584 288.642 79.725 288.158C78.9917 287.674 77.8844 287.432 76.403 287.432H75.897V285.76H76.425C77.7744 285.745 78.7937 285.525 79.483 285.1C80.1724 284.66 80.517 283.985 80.517 283.076C80.517 282.299 80.2604 281.675 79.747 281.206C79.2484 280.737 78.5297 280.502 77.591 280.502C76.6817 280.502 75.9484 280.737 75.391 281.206C74.8337 281.675 74.5037 282.306 74.401 283.098H72.443ZM94.1321 286.09V287.784H85.3541V286.09H94.1321ZM97.3173 293.394C99.18 291.898 100.639 290.673 101.695 289.72C102.751 288.752 103.639 287.747 104.357 286.706C105.091 285.65 105.457 284.616 105.457 283.604C105.457 282.651 105.223 281.903 104.753 281.36C104.299 280.803 103.558 280.524 102.531 280.524C101.534 280.524 100.757 280.839 100.199 281.47C99.6566 282.086 99.3633 282.915 99.3193 283.956H97.3833C97.442 282.313 97.9406 281.045 98.8793 280.15C99.818 279.255 101.028 278.808 102.509 278.808C104.02 278.808 105.215 279.226 106.095 280.062C106.99 280.898 107.437 282.049 107.437 283.516C107.437 284.733 107.071 285.921 106.337 287.08C105.619 288.224 104.797 289.236 103.873 290.116C102.949 290.981 101.769 291.993 100.331 293.152H107.899V294.824H97.3173V293.394ZM110.214 286.882C110.214 284.359 110.624 282.394 111.446 280.986C112.267 279.563 113.704 278.852 115.758 278.852C117.796 278.852 119.226 279.563 120.048 280.986C120.869 282.394 121.28 284.359 121.28 286.882C121.28 289.449 120.869 291.443 120.048 292.866C119.226 294.289 117.796 295 115.758 295C113.704 295 112.267 294.289 111.446 292.866C110.624 291.443 110.214 289.449 110.214 286.882ZM119.3 286.882C119.3 285.606 119.212 284.528 119.036 283.648C118.874 282.753 118.53 282.035 118.002 281.492C117.488 280.949 116.74 280.678 115.758 280.678C114.76 280.678 113.998 280.949 113.47 281.492C112.956 282.035 112.612 282.753 112.436 283.648C112.274 284.528 112.194 285.606 112.194 286.882C112.194 288.202 112.274 289.309 112.436 290.204C112.612 291.099 112.956 291.817 113.47 292.36C113.998 292.903 114.76 293.174 115.758 293.174C116.74 293.174 117.488 292.903 118.002 292.36C118.53 291.817 118.874 291.099 119.036 290.204C119.212 289.309 119.3 288.202 119.3 286.882ZM123.786 293.394C125.649 291.898 127.108 290.673 128.164 289.72C129.22 288.752 130.107 287.747 130.826 286.706C131.559 285.65 131.926 284.616 131.926 283.604C131.926 282.651 131.691 281.903 131.222 281.36C130.767 280.803 130.027 280.524 129 280.524C128.003 280.524 127.225 280.839 126.668 281.47C126.125 282.086 125.832 282.915 125.788 283.956H123.852C123.911 282.313 124.409 281.045 125.348 280.15C126.287 279.255 127.497 278.808 128.978 278.808C130.489 278.808 131.684 279.226 132.564 280.062C133.459 280.898 133.906 282.049 133.906 283.516C133.906 284.733 133.539 285.921 132.806 287.08C132.087 288.224 131.266 289.236 130.342 290.116C129.418 290.981 128.237 291.993 126.8 293.152H134.368V294.824H123.786V293.394ZM136.198 291.458V289.94L143.92 279.248H146.318V289.72H148.518V291.458H146.318V295H144.338V291.458H136.198ZM144.426 281.338L138.508 289.72H144.426V281.338Z" fill="#F37021"/>
<path d="M32.608 318.76V317.432H35.616V329H34.144V318.76H32.608ZM37.941 327.832C39.2957 326.744 40.357 325.853 41.125 325.16C41.893 324.456 42.5383 323.725 43.061 322.968C43.5943 322.2 43.861 321.448 43.861 320.712C43.861 320.019 43.6903 319.475 43.349 319.08C43.0183 318.675 42.4797 318.472 41.733 318.472C41.0077 318.472 40.4423 318.701 40.037 319.16C39.6423 319.608 39.429 320.211 39.397 320.968H37.989C38.0317 319.773 38.3943 318.851 39.077 318.2C39.7597 317.549 40.6397 317.224 41.717 317.224C42.8157 317.224 43.685 317.528 44.325 318.136C44.9757 318.744 45.301 319.581 45.301 320.648C45.301 321.533 45.0343 322.397 44.501 323.24C43.9783 324.072 43.381 324.808 42.709 325.448C42.037 326.077 41.1783 326.813 40.133 327.656H45.637V328.872H37.941V327.832ZM49.3361 321.432V326.6C49.3361 327.027 49.4268 327.331 49.6081 327.512C49.7895 327.683 50.1041 327.768 50.5521 327.768H51.6241V329H50.3121C49.5015 329 48.8935 328.813 48.4881 328.44C48.0828 328.067 47.8801 327.453 47.8801 326.6V321.432H46.7441V320.232H47.8801V318.024H49.3361V320.232H51.6241V321.432H49.3361ZM57.7403 320.072C58.4016 320.072 58.9989 320.216 59.5323 320.504C60.0656 320.781 60.4816 321.203 60.7803 321.768C61.0896 322.333 61.2443 323.021 61.2443 323.832V329H59.8043V324.04C59.8043 323.165 59.5856 322.499 59.1483 322.04C58.7109 321.571 58.1136 321.336 57.3563 321.336C56.5883 321.336 55.9749 321.576 55.5163 322.056C55.0683 322.536 54.8443 323.235 54.8443 324.152V329H53.3883V317.16H54.8443V321.48C55.1323 321.032 55.5269 320.685 56.0283 320.44C56.5403 320.195 57.1109 320.072 57.7403 320.072Z" fill="black"/>
<circle cx="529" cy="290" r="57.5" stroke="black" stroke-opacity="0.15"/>
<g filter="url(#filter3_d_0_76)">
<rect x="663" y="202" width="613" height="176" rx="20" fill="white"/>
</g>
<path d="M698.9 262.175C697.617 262.175 696.467 261.967 695.45 261.55C694.433 261.133 693.617 260.517 693 259.7C692.4 258.883 692.083 257.9 692.05 256.75H696.6C696.667 257.4 696.892 257.9 697.275 258.25C697.658 258.583 698.158 258.75 698.775 258.75C699.408 258.75 699.908 258.608 700.275 258.325C700.642 258.025 700.825 257.617 700.825 257.1C700.825 256.667 700.675 256.308 700.375 256.025C700.092 255.742 699.733 255.508 699.3 255.325C698.883 255.142 698.283 254.933 697.5 254.7C696.367 254.35 695.442 254 694.725 253.65C694.008 253.3 693.392 252.783 692.875 252.1C692.358 251.417 692.1 250.525 692.1 249.425C692.1 247.792 692.692 246.517 693.875 245.6C695.058 244.667 696.6 244.2 698.5 244.2C700.433 244.2 701.992 244.667 703.175 245.6C704.358 246.517 704.992 247.8 705.075 249.45H700.45C700.417 248.883 700.208 248.442 699.825 248.125C699.442 247.792 698.95 247.625 698.35 247.625C697.833 247.625 697.417 247.767 697.1 248.05C696.783 248.317 696.625 248.708 696.625 249.225C696.625 249.792 696.892 250.233 697.425 250.55C697.958 250.867 698.792 251.208 699.925 251.575C701.058 251.958 701.975 252.325 702.675 252.675C703.392 253.025 704.008 253.533 704.525 254.2C705.042 254.867 705.3 255.725 705.3 256.775C705.3 257.775 705.042 258.683 704.525 259.5C704.025 260.317 703.292 260.967 702.325 261.45C701.358 261.933 700.217 262.175 698.9 262.175ZM707.081 255.025C707.081 253.575 707.373 252.308 707.956 251.225C708.556 250.142 709.381 249.308 710.431 248.725C711.498 248.142 712.714 247.85 714.081 247.85C715.831 247.85 717.289 248.308 718.456 249.225C719.639 250.142 720.414 251.433 720.781 253.1H716.231C715.848 252.033 715.106 251.5 714.006 251.5C713.223 251.5 712.598 251.808 712.131 252.425C711.664 253.025 711.431 253.892 711.431 255.025C711.431 256.158 711.664 257.033 712.131 257.65C712.598 258.25 713.223 258.55 714.006 258.55C715.106 258.55 715.848 258.017 716.231 256.95H720.781C720.414 258.583 719.639 259.867 718.456 260.8C717.273 261.733 715.814 262.2 714.081 262.2C712.714 262.2 711.498 261.908 710.431 261.325C709.381 260.742 708.556 259.908 707.956 258.825C707.373 257.742 707.081 256.475 707.081 255.025ZM731.643 247.9C733.243 247.9 734.526 248.433 735.493 249.5C736.459 250.55 736.943 252 736.943 253.85V262H732.693V254.425C732.693 253.492 732.451 252.767 731.968 252.25C731.484 251.733 730.834 251.475 730.018 251.475C729.201 251.475 728.551 251.733 728.068 252.25C727.584 252.767 727.343 253.492 727.343 254.425V262H723.068V243.5H727.343V249.925C727.776 249.308 728.368 248.817 729.118 248.45C729.868 248.083 730.709 247.9 731.643 247.9ZM746.263 262.2C744.897 262.2 743.663 261.908 742.563 261.325C741.48 260.742 740.622 259.908 739.988 258.825C739.372 257.742 739.063 256.475 739.063 255.025C739.063 253.592 739.38 252.333 740.013 251.25C740.647 250.15 741.513 249.308 742.613 248.725C743.713 248.142 744.947 247.85 746.313 247.85C747.68 247.85 748.913 248.142 750.013 248.725C751.113 249.308 751.98 250.15 752.613 251.25C753.247 252.333 753.563 253.592 753.563 255.025C753.563 256.458 753.238 257.725 752.588 258.825C751.955 259.908 751.08 260.742 749.963 261.325C748.863 261.908 747.63 262.2 746.263 262.2ZM746.263 258.5C747.08 258.5 747.772 258.2 748.338 257.6C748.922 257 749.213 256.142 749.213 255.025C749.213 253.908 748.93 253.05 748.363 252.45C747.813 251.85 747.13 251.55 746.313 251.55C745.48 251.55 744.788 251.85 744.238 252.45C743.688 253.033 743.413 253.892 743.413 255.025C743.413 256.142 743.68 257 744.213 257.6C744.763 258.2 745.447 258.5 746.263 258.5ZM762.181 262.2C760.815 262.2 759.581 261.908 758.481 261.325C757.398 260.742 756.54 259.908 755.906 258.825C755.29 257.742 754.981 256.475 754.981 255.025C754.981 253.592 755.298 252.333 755.931 251.25C756.565 250.15 757.431 249.308 758.531 248.725C759.631 248.142 760.865 247.85 762.231 247.85C763.598 247.85 764.831 248.142 765.931 248.725C767.031 249.308 767.898 250.15 768.531 251.25C769.165 252.333 769.481 253.592 769.481 255.025C769.481 256.458 769.156 257.725 768.506 258.825C767.873 259.908 766.998 260.742 765.881 261.325C764.781 261.908 763.548 262.2 762.181 262.2ZM762.181 258.5C762.998 258.5 763.69 258.2 764.256 257.6C764.84 257 765.131 256.142 765.131 255.025C765.131 253.908 764.848 253.05 764.281 252.45C763.731 251.85 763.048 251.55 762.231 251.55C761.398 251.55 760.706 251.85 760.156 252.45C759.606 253.033 759.331 253.892 759.331 255.025C759.331 256.142 759.598 257 760.131 257.6C760.681 258.2 761.365 258.5 762.181 258.5ZM776.024 243.5V262H771.749V243.5H776.024ZM792.92 247.9C794.553 247.9 795.853 248.433 796.82 249.5C797.803 250.55 798.295 252 798.295 253.85V262H794.045V254.425C794.045 253.492 793.803 252.767 793.32 252.25C792.837 251.733 792.187 251.475 791.37 251.475C790.553 251.475 789.903 251.733 789.42 252.25C788.937 252.767 788.695 253.492 788.695 254.425V262H784.42V248.05H788.695V249.9C789.128 249.283 789.712 248.8 790.445 248.45C791.178 248.083 792.003 247.9 792.92 247.9ZM800.416 255C800.416 253.567 800.682 252.308 801.216 251.225C801.766 250.142 802.507 249.308 803.441 248.725C804.374 248.142 805.416 247.85 806.566 247.85C807.549 247.85 808.407 248.05 809.141 248.45C809.891 248.85 810.466 249.375 810.866 250.025V248.05H815.141V262H810.866V260.025C810.449 260.675 809.866 261.2 809.116 261.6C808.382 262 807.524 262.2 806.541 262.2C805.407 262.2 804.374 261.908 803.441 261.325C802.507 260.725 801.766 259.883 801.216 258.8C800.682 257.7 800.416 256.433 800.416 255ZM810.866 255.025C810.866 253.958 810.566 253.117 809.966 252.5C809.382 251.883 808.666 251.575 807.816 251.575C806.966 251.575 806.241 251.883 805.641 252.5C805.057 253.1 804.766 253.933 804.766 255C804.766 256.067 805.057 256.917 805.641 257.55C806.241 258.167 806.966 258.475 807.816 258.475C808.666 258.475 809.382 258.167 809.966 257.55C810.566 256.933 810.866 256.092 810.866 255.025ZM836.034 247.9C837.767 247.9 839.142 248.425 840.159 249.475C841.192 250.525 841.709 251.983 841.709 253.85V262H837.459V254.425C837.459 253.525 837.217 252.833 836.734 252.35C836.267 251.85 835.617 251.6 834.784 251.6C833.95 251.6 833.292 251.85 832.809 252.35C832.342 252.833 832.109 253.525 832.109 254.425V262H827.859V254.425C827.859 253.525 827.617 252.833 827.134 252.35C826.667 251.85 826.017 251.6 825.184 251.6C824.35 251.6 823.692 251.85 823.209 252.35C822.742 252.833 822.509 253.525 822.509 254.425V262H818.234V248.05H822.509V249.8C822.942 249.217 823.509 248.758 824.209 248.425C824.909 248.075 825.7 247.9 826.584 247.9C827.634 247.9 828.567 248.125 829.384 248.575C830.217 249.025 830.867 249.667 831.334 250.5C831.817 249.733 832.475 249.108 833.309 248.625C834.142 248.142 835.05 247.9 836.034 247.9ZM857.848 254.8C857.848 255.2 857.823 255.617 857.773 256.05H848.098C848.165 256.917 848.44 257.583 848.923 258.05C849.423 258.5 850.032 258.725 850.748 258.725C851.815 258.725 852.557 258.275 852.973 257.375H857.523C857.29 258.292 856.865 259.117 856.248 259.85C855.648 260.583 854.89 261.158 853.973 261.575C853.057 261.992 852.032 262.2 850.898 262.2C849.532 262.2 848.315 261.908 847.248 261.325C846.182 260.742 845.348 259.908 844.748 258.825C844.148 257.742 843.848 256.475 843.848 255.025C843.848 253.575 844.14 252.308 844.723 251.225C845.323 250.142 846.157 249.308 847.223 248.725C848.29 248.142 849.515 247.85 850.898 247.85C852.248 247.85 853.448 248.133 854.498 248.7C855.548 249.267 856.365 250.075 856.948 251.125C857.548 252.175 857.848 253.4 857.848 254.8ZM853.473 253.675C853.473 252.942 853.223 252.358 852.723 251.925C852.223 251.492 851.598 251.275 850.848 251.275C850.132 251.275 849.523 251.483 849.023 251.9C848.54 252.317 848.24 252.908 848.123 253.675H853.473Z" fill="black"/>
<path d="M692.122 293.394C693.985 291.898 695.444 290.673 696.5 289.72C697.556 288.752 698.443 287.747 699.162 286.706C699.895 285.65 700.262 284.616 700.262 283.604C700.262 282.651 700.027 281.903 699.558 281.36C699.103 280.803 698.363 280.524 697.336 280.524C696.339 280.524 695.561 280.839 695.004 281.47C694.461 282.086 694.168 282.915 694.124 283.956H692.188C692.247 282.313 692.745 281.045 693.684 280.15C694.623 279.255 695.833 278.808 697.314 278.808C698.825 278.808 700.02 279.226 700.9 280.062C701.795 280.898 702.242 282.049 702.242 283.516C702.242 284.733 701.875 285.921 701.142 287.08C700.423 288.224 699.602 289.236 698.678 290.116C697.754 290.981 696.573 291.993 695.136 293.152H702.704V294.824H692.122V293.394ZM705.018 286.882C705.018 284.359 705.429 282.394 706.25 280.986C707.072 279.563 708.509 278.852 710.562 278.852C712.601 278.852 714.031 279.563 714.852 280.986C715.674 282.394 716.084 284.359 716.084 286.882C716.084 289.449 715.674 291.443 714.852 292.866C714.031 294.289 712.601 295 710.562 295C708.509 295 707.072 294.289 706.25 292.866C705.429 291.443 705.018 289.449 705.018 286.882ZM714.104 286.882C714.104 285.606 714.016 284.528 713.84 283.648C713.679 282.753 713.334 282.035 712.806 281.492C712.293 280.949 711.545 280.678 710.562 280.678C709.565 280.678 708.802 280.949 708.274 281.492C707.761 282.035 707.416 282.753 707.24 283.648C707.079 284.528 706.998 285.606 706.998 286.882C706.998 288.202 707.079 289.309 707.24 290.204C707.416 291.099 707.761 291.817 708.274 292.36C708.802 292.903 709.565 293.174 710.562 293.174C711.545 293.174 712.293 292.903 712.806 292.36C713.334 291.817 713.679 291.099 713.84 290.204C714.016 289.309 714.104 288.202 714.104 286.882ZM718.591 293.394C720.453 291.898 721.913 290.673 722.969 289.72C724.025 288.752 724.912 287.747 725.631 286.706C726.364 285.65 726.731 284.616 726.731 283.604C726.731 282.651 726.496 281.903 726.027 281.36C725.572 280.803 724.831 280.524 723.805 280.524C722.807 280.524 722.03 280.839 721.473 281.47C720.93 282.086 720.637 282.915 720.593 283.956H718.657C718.715 282.313 719.214 281.045 720.153 280.15C721.091 279.255 722.301 278.808 723.783 278.808C725.293 278.808 726.489 279.226 727.369 280.062C728.263 280.898 728.711 282.049 728.711 283.516C728.711 284.733 728.344 285.921 727.611 287.08C726.892 288.224 726.071 289.236 725.147 290.116C724.223 290.981 723.042 291.993 721.605 293.152H729.173V294.824H718.591V293.394ZM731.443 283.098C731.546 281.749 732.066 280.693 733.005 279.93C733.944 279.167 735.161 278.786 736.657 278.786C737.654 278.786 738.512 278.969 739.231 279.336C739.964 279.688 740.514 280.172 740.881 280.788C741.262 281.404 741.453 282.101 741.453 282.878C741.453 283.787 741.189 284.572 740.661 285.232C740.148 285.892 739.473 286.317 738.637 286.508V286.618C739.59 286.853 740.346 287.315 740.903 288.004C741.46 288.693 741.739 289.595 741.739 290.71C741.739 291.546 741.548 292.301 741.167 292.976C740.786 293.636 740.214 294.157 739.451 294.538C738.688 294.919 737.772 295.11 736.701 295.11C735.146 295.11 733.87 294.707 732.873 293.9C731.876 293.079 731.318 291.92 731.201 290.424H733.137C733.24 291.304 733.599 292.023 734.215 292.58C734.831 293.137 735.652 293.416 736.679 293.416C737.706 293.416 738.483 293.152 739.011 292.624C739.554 292.081 739.825 291.385 739.825 290.534C739.825 289.434 739.458 288.642 738.725 288.158C737.992 287.674 736.884 287.432 735.403 287.432H734.897V285.76H735.425C736.774 285.745 737.794 285.525 738.483 285.1C739.172 284.66 739.517 283.985 739.517 283.076C739.517 282.299 739.26 281.675 738.747 281.206C738.248 280.737 737.53 280.502 736.591 280.502C735.682 280.502 734.948 280.737 734.391 281.206C733.834 281.675 733.504 282.306 733.401 283.098H731.443ZM753.132 286.09V287.784H744.354V286.09H753.132ZM756.317 293.394C758.18 291.898 759.639 290.673 760.695 289.72C761.751 288.752 762.639 287.747 763.357 286.706C764.091 285.65 764.457 284.616 764.457 283.604C764.457 282.651 764.223 281.903 763.753 281.36C763.299 280.803 762.558 280.524 761.531 280.524C760.534 280.524 759.757 280.839 759.199 281.47C758.657 282.086 758.363 282.915 758.319 283.956H756.383C756.442 282.313 756.941 281.045 757.879 280.15C758.818 279.255 760.028 278.808 761.509 278.808C763.02 278.808 764.215 279.226 765.095 280.062C765.99 280.898 766.437 282.049 766.437 283.516C766.437 284.733 766.071 285.921 765.337 287.08C764.619 288.224 763.797 289.236 762.873 290.116C761.949 290.981 760.769 291.993 759.331 293.152H766.899V294.824H756.317V293.394ZM769.214 286.882C769.214 284.359 769.624 282.394 770.446 280.986C771.267 279.563 772.704 278.852 774.758 278.852C776.796 278.852 778.226 279.563 779.048 280.986C779.869 282.394 780.28 284.359 780.28 286.882C780.28 289.449 779.869 291.443 779.048 292.866C778.226 294.289 776.796 295 774.758 295C772.704 295 771.267 294.289 770.446 292.866C769.624 291.443 769.214 289.449 769.214 286.882ZM778.3 286.882C778.3 285.606 778.212 284.528 778.036 283.648C777.874 282.753 777.53 282.035 777.002 281.492C776.488 280.949 775.74 280.678 774.758 280.678C773.76 280.678 772.998 280.949 772.47 281.492C771.956 282.035 771.612 282.753 771.436 283.648C771.274 284.528 771.194 285.606 771.194 286.882C771.194 288.202 771.274 289.309 771.436 290.204C771.612 291.099 771.956 291.817 772.47 292.36C772.998 292.903 773.76 293.174 774.758 293.174C775.74 293.174 776.488 292.903 777.002 292.36C777.53 291.817 777.874 291.099 778.036 290.204C778.212 289.309 778.3 288.202 778.3 286.882ZM782.786 293.394C784.649 291.898 786.108 290.673 787.164 289.72C788.22 288.752 789.107 287.747 789.826 286.706C790.559 285.65 790.926 284.616 790.926 283.604C790.926 282.651 790.691 281.903 790.222 281.36C789.767 280.803 789.027 280.524 788 280.524C787.003 280.524 786.225 280.839 785.668 281.47C785.125 282.086 784.832 282.915 784.788 283.956H782.852C782.911 282.313 783.409 281.045 784.348 280.15C785.287 279.255 786.497 278.808 787.978 278.808C789.489 278.808 790.684 279.226 791.564 280.062C792.459 280.898 792.906 282.049 792.906 283.516C792.906 284.733 792.539 285.921 791.806 287.08C791.087 288.224 790.266 289.236 789.342 290.116C788.418 290.981 787.237 291.993 785.8 293.152H793.368V294.824H782.786V293.394ZM795.198 291.458V289.94L802.92 279.248H805.318V289.72H807.518V291.458H805.318V295H803.338V291.458H795.198ZM803.426 281.338L797.508 289.72H803.426V281.338Z" fill="#F37021"/>
<path d="M691.608 318.76V317.432H694.616V329H693.144V318.76H691.608ZM697.117 323.096C697.117 321.261 697.416 319.832 698.013 318.808C698.61 317.773 699.656 317.256 701.149 317.256C702.632 317.256 703.672 317.773 704.269 318.808C704.866 319.832 705.165 321.261 705.165 323.096C705.165 324.963 704.866 326.413 704.269 327.448C703.672 328.483 702.632 329 701.149 329C699.656 329 698.61 328.483 698.013 327.448C697.416 326.413 697.117 324.963 697.117 323.096ZM703.725 323.096C703.725 322.168 703.661 321.384 703.533 320.744C703.416 320.093 703.165 319.571 702.781 319.176C702.408 318.781 701.864 318.584 701.149 318.584C700.424 318.584 699.869 318.781 699.485 319.176C699.112 319.571 698.861 320.093 698.733 320.744C698.616 321.384 698.557 322.168 698.557 323.096C698.557 324.056 698.616 324.861 698.733 325.512C698.861 326.163 699.112 326.685 699.485 327.08C699.869 327.475 700.424 327.672 701.149 327.672C701.864 327.672 702.408 327.475 702.781 327.08C703.165 326.685 703.416 326.163 703.533 325.512C703.661 324.861 703.725 324.056 703.725 323.096ZM709.18 321.432V326.6C709.18 327.027 709.271 327.331 709.452 327.512C709.633 327.683 709.948 327.768 710.396 327.768H711.468V329H710.156C709.345 329 708.737 328.813 708.332 328.44C707.927 328.067 707.724 327.453 707.724 326.6V321.432H706.588V320.232H707.724V318.024H709.18V320.232H711.468V321.432H709.18ZM717.584 320.072C718.245 320.072 718.843 320.216 719.376 320.504C719.909 320.781 720.325 321.203 720.624 321.768C720.933 322.333 721.088 323.021 721.088 323.832V329H719.648V324.04C719.648 323.165 719.429 322.499 718.992 322.04C718.555 321.571 717.957 321.336 717.2 321.336C716.432 321.336 715.819 321.576 715.36 322.056C714.912 322.536 714.688 323.235 714.688 324.152V329H713.232V317.16H714.688V321.48C714.976 321.032 715.371 320.685 715.872 320.44C716.384 320.195 716.955 320.072 717.584 320.072Z" fill="black"/>
<circle cx="1188" cy="290" r="57.5" stroke="black" stroke-opacity="0.15"/>
<defs>
<filter id="filter0_d_0_76" x="0" y="0" width="621" height="184" filterUnits="userSpaceOnUse" color-interpolation-filters="sRGB">
<feFlood flood-opacity="0" result="BackgroundImageFix"/>
<feColorMatrix in="SourceAlpha" type="matrix" values="0 0 0 0 0 0 0 0 0 0 0 0 0 0 0 0 0 0 127 0" result="hardAlpha"/>
<feOffset dy="4"/>
<feGaussianBlur stdDeviation="2"/>
<feColorMatrix type="matrix" values="0 0 0 0 0 0 0 0 0 0 0 0 0 0 0 0 0 0 0.25 0"/>
<feBlend mode="normal" in2="BackgroundImageFix" result="effect1_dropShadow_0_76"/>
<feBlend mode="normal" in="SourceGraphic" in2="effect1_dropShadow_0_76" result="shape"/>
</filter>
<filter id="filter1_d_0_76" x="659" y="0" width="621" height="184" filterUnits="userSpaceOnUse" color-interpolation-filters="sRGB">
<feFlood flood-opacity="0" result="BackgroundImageFix"/>
<feColorMatrix in="SourceAlpha" type="matrix" values="0 0 0 0 0 0 0 0 0 0 0 0 0 0 0 0 0 0 127 0" result="hardAlpha"/>
<feOffset dy="4"/>
<feGaussianBlur stdDeviation="2"/>
<feColorMatrix type="matrix" values="0 0 0 0 0 0 0 0 0 0 0 0 0 0 0 0 0 0 0.25 0"/>
<feBlend mode="normal" in2="BackgroundImageFix" result="effect1_dropShadow_0_76"/>
<feBlend mode="normal" in="SourceGraphic" in2="effect1_dropShadow_0_76" result="shape"/>
</filter>
<filter id="filter2_d_0_76" x="0" y="202" width="621" height="184" filterUnits="userSpaceOnUse" color-interpolation-filters="sRGB">
<feFlood flood-opacity="0" result="BackgroundImageFix"/>
<feColorMatrix in="SourceAlpha" type="matrix" values="0 0 0 0 0 0 0 0 0 0 0 0 0 0 0 0 0 0 127 0" result="hardAlpha"/>
<feOffset dy="4"/>
<feGaussianBlur stdDeviation="2"/>
<feColorMatrix type="matrix" values="0 0 0 0 0 0 0 0 0 0 0 0 0 0 0 0 0 0 0.25 0"/>
<feBlend mode="normal" in2="BackgroundImageFix" result="effect1_dropShadow_0_76"/>
<feBlend mode="normal" in="SourceGraphic" in2="effect1_dropShadow_0_76" result="shape"/>
</filter>
<filter id="filter3_d_0_76" x="659" y="202" width="621" height="184" filterUnits="userSpaceOnUse" color-interpolation-filters="sRGB">
<feFlood flood-opacity="0" result="BackgroundImageFix"/>
<feColorMatrix in="SourceAlpha" type="matrix" values="0 0 0 0 0 0 0 0 0 0 0 0 0 0 0 0 0 0 127 0" result="hardAlpha"/>
<feOffset dy="4"/>
<feGaussianBlur stdDeviation="2"/>
<feColorMatrix type="matrix" values="0 0 0 0 0 0 0 0 0 0 0 0 0 0 0 0 0 0 0.25 0"/>
<feBlend mode="normal" in2="BackgroundImageFix" result="effect1_dropShadow_0_76"/>
<feBlend mode="normal" in="SourceGraphic" in2="effect1_dropShadow_0_76" result="shape"/>
</filter>
</defs>
</svg>
