<svg width="440" height="440" viewBox="0 0 440 440" fill="none" xmlns="http://www.w3.org/2000/svg">
<path d="M440 219.315L356.386 252.213C345.421 298.817 311.153 335.827 267.29 350.904L264.548 324.861C291.963 313.895 315.265 290.593 326.23 263.178C331.713 249.471 334.455 234.393 334.455 219.315C334.455 204.237 331.713 189.159 326.23 175.452C315.265 148.038 291.963 124.736 264.548 113.77C257.695 111.028 252.212 109.658 245.358 108.287C237.134 106.916 228.91 105.545 220.685 105.545C212.461 105.545 204.237 106.916 196.012 108.287C189.159 109.658 183.676 111.028 176.822 113.77C149.408 124.736 126.106 148.038 115.14 175.452C109.657 189.159 106.916 204.237 106.916 219.315C106.916 234.393 109.657 249.471 115.14 263.178C126.106 290.593 148.037 312.524 175.452 324.861L172.71 350.904C128.847 334.456 95.9502 298.817 84.9844 252.213L0 219.315L84.9844 186.418C97.3209 135.701 137.072 95.9505 187.788 83.614L200.125 52.0874L220.685 0L239.875 47.9752L253.583 82.2432C304.299 94.5797 345.421 134.331 356.386 185.047L440 219.315Z" fill="#FF5D17" fill-opacity="0.5"/>
<path d="M352.28 89.1008L313.899 106.92L334.46 127.481L352.28 89.1008Z" fill="#FFA114" fill-opacity="0.5"/>
<path d="M352.28 349.532L334.46 311.152L313.899 333.083L352.28 349.532Z" fill="#FFA114" fill-opacity="0.5"/>
<path d="M90.4644 350.903L128.844 333.083L108.284 311.152L90.4644 350.903Z" fill="#FFA114" fill-opacity="0.5"/>
<path d="M90.4644 89.1008L108.284 127.481L128.844 105.549L90.4644 89.1008Z" fill="#FFA114" fill-opacity="0.5"/>
<path d="M261.804 396.137L220.682 440L179.561 396.137L186.414 313.894L201.492 150.778L179.561 123.363C187.785 119.251 196.01 117.881 205.605 116.51C211.087 115.139 215.2 115.139 220.682 115.139C226.165 115.139 230.277 115.139 235.76 116.51C245.355 117.881 253.58 120.622 261.804 123.363L239.872 150.778L254.95 313.894L261.804 396.137Z" fill="#FFA114" fill-opacity="0.5"/>
</svg>