<svg width="726" height="66" viewBox="0 0 726 66" fill="none" xmlns="http://www.w3.org/2000/svg">
<rect x="183.5" y="0.5" width="372" height="65" rx="7.5" stroke="#F37021"/>
<rect x="183.5" y="0.5" width="372" height="65" rx="7.5" stroke="black" stroke-opacity="0.2"/>
<path d="M257.359 30.902C257.711 30.2127 258.21 29.6773 258.855 29.296C259.515 28.9147 260.314 28.724 261.253 28.724V30.792H260.725C258.481 30.792 257.359 32.0093 257.359 34.444V41H255.357V28.944H257.359V30.902ZM264.598 26.986C264.217 26.986 263.894 26.854 263.63 26.59C263.366 26.326 263.234 26.0033 263.234 25.622C263.234 25.2407 263.366 24.918 263.63 24.654C263.894 24.39 264.217 24.258 264.598 24.258C264.965 24.258 265.273 24.39 265.522 24.654C265.786 24.918 265.918 25.2407 265.918 25.622C265.918 26.0033 265.786 26.326 265.522 26.59C265.273 26.854 264.965 26.986 264.598 26.986ZM265.566 28.944V41H263.564V28.944H265.566ZM279.362 28.944L272.102 46.676H270.034L272.41 40.868L267.548 28.944H269.77L273.554 38.712L277.294 28.944H279.362ZM280.627 34.928C280.627 33.696 280.876 32.618 281.375 31.694C281.873 30.7553 282.555 30.0293 283.421 29.516C284.301 29.0027 285.276 28.746 286.347 28.746C287.403 28.746 288.319 28.9733 289.097 29.428C289.874 29.8827 290.453 30.4547 290.835 31.144V28.944H292.859V41H290.835V38.756C290.439 39.46 289.845 40.0467 289.053 40.516C288.275 40.9707 287.366 41.198 286.325 41.198C285.254 41.198 284.286 40.934 283.421 40.406C282.555 39.878 281.873 39.1373 281.375 38.184C280.876 37.2307 280.627 36.1453 280.627 34.928ZM290.835 34.95C290.835 34.0407 290.651 33.2487 290.285 32.574C289.918 31.8993 289.419 31.386 288.789 31.034C288.173 30.6673 287.491 30.484 286.743 30.484C285.995 30.484 285.313 30.66 284.697 31.012C284.081 31.364 283.589 31.8773 283.223 32.552C282.856 33.2267 282.673 34.0187 282.673 34.928C282.673 35.852 282.856 36.6587 283.223 37.348C283.589 38.0227 284.081 38.5433 284.697 38.91C285.313 39.262 285.995 39.438 286.743 39.438C287.491 39.438 288.173 39.262 288.789 38.91C289.419 38.5433 289.918 38.0227 290.285 37.348C290.651 36.6587 290.835 35.8593 290.835 34.95ZM298.244 31.166C298.64 30.4767 299.226 29.9047 300.004 29.45C300.796 28.9807 301.712 28.746 302.754 28.746C303.824 28.746 304.792 29.0027 305.658 29.516C306.538 30.0293 307.227 30.7553 307.726 31.694C308.224 32.618 308.474 33.696 308.474 34.928C308.474 36.1453 308.224 37.2307 307.726 38.184C307.227 39.1373 306.538 39.878 305.658 40.406C304.792 40.934 303.824 41.198 302.754 41.198C301.727 41.198 300.818 40.9707 300.026 40.516C299.248 40.0467 298.654 39.4673 298.244 38.778V46.72H296.242V28.944H298.244V31.166ZM306.428 34.928C306.428 34.0187 306.244 33.2267 305.878 32.552C305.511 31.8773 305.012 31.364 304.382 31.012C303.766 30.66 303.084 30.484 302.336 30.484C301.602 30.484 300.92 30.6673 300.29 31.034C299.674 31.386 299.175 31.9067 298.794 32.596C298.427 33.2707 298.244 34.0553 298.244 34.95C298.244 35.8593 298.427 36.6587 298.794 37.348C299.175 38.0227 299.674 38.5433 300.29 38.91C300.92 39.262 301.602 39.438 302.336 39.438C303.084 39.438 303.766 39.262 304.382 38.91C305.012 38.5433 305.511 38.0227 305.878 37.348C306.244 36.6587 306.428 35.852 306.428 34.928ZM313.111 30.902C313.463 30.2127 313.962 29.6773 314.607 29.296C315.267 28.9147 316.066 28.724 317.005 28.724V30.792H316.477C314.233 30.792 313.111 32.0093 313.111 34.444V41H311.109V28.944H313.111V30.902ZM318.568 34.928C318.568 33.696 318.817 32.618 319.316 31.694C319.815 30.7553 320.497 30.0293 321.362 29.516C322.242 29.0027 323.217 28.746 324.288 28.746C325.344 28.746 326.261 28.9733 327.038 29.428C327.815 29.8827 328.395 30.4547 328.776 31.144V28.944H330.8V41H328.776V38.756C328.38 39.46 327.786 40.0467 326.994 40.516C326.217 40.9707 325.307 41.198 324.266 41.198C323.195 41.198 322.227 40.934 321.362 40.406C320.497 39.878 319.815 39.1373 319.316 38.184C318.817 37.2307 318.568 36.1453 318.568 34.928ZM328.776 34.95C328.776 34.0407 328.593 33.2487 328.226 32.574C327.859 31.8993 327.361 31.386 326.73 31.034C326.114 30.6673 325.432 30.484 324.684 30.484C323.936 30.484 323.254 30.66 322.638 31.012C322.022 31.364 321.531 31.8773 321.164 32.552C320.797 33.2267 320.614 34.0187 320.614 34.928C320.614 35.852 320.797 36.6587 321.164 37.348C321.531 38.0227 322.022 38.5433 322.638 38.91C323.254 39.262 323.936 39.438 324.684 39.438C325.432 39.438 326.114 39.262 326.73 38.91C327.361 38.5433 327.859 38.0227 328.226 37.348C328.593 36.6587 328.776 35.8593 328.776 34.95ZM335.261 26.986C334.88 26.986 334.557 26.854 334.293 26.59C334.044 26.326 333.919 26.0033 333.919 25.622C333.919 25.2407 334.044 24.918 334.293 24.654C334.557 24.39 334.88 24.258 335.261 24.258C335.642 24.258 335.958 24.39 336.207 24.654C336.471 24.918 336.603 25.2407 336.603 25.622C336.603 26.0033 336.471 26.326 336.207 26.59C335.958 26.854 335.642 26.986 335.261 26.986ZM336.251 43.618C336.251 44.6887 335.98 45.4733 335.437 45.972C334.894 46.4707 334.102 46.72 333.061 46.72H331.895V45.026H332.731C333.288 45.026 333.677 44.916 333.897 44.696C334.132 44.476 334.249 44.102 334.249 43.574V28.944H336.251V43.618ZM338.892 34.928C338.892 33.696 339.141 32.618 339.64 31.694C340.139 30.7553 340.821 30.0293 341.686 29.516C342.566 29.0027 343.541 28.746 344.612 28.746C345.668 28.746 346.585 28.9733 347.362 29.428C348.139 29.8827 348.719 30.4547 349.1 31.144V28.944H351.124V41H349.1V38.756C348.704 39.46 348.11 40.0467 347.318 40.516C346.541 40.9707 345.631 41.198 344.59 41.198C343.519 41.198 342.551 40.934 341.686 40.406C340.821 39.878 340.139 39.1373 339.64 38.184C339.141 37.2307 338.892 36.1453 338.892 34.928ZM349.1 34.95C349.1 34.0407 348.917 33.2487 348.55 32.574C348.183 31.8993 347.685 31.386 347.054 31.034C346.438 30.6673 345.756 30.484 345.008 30.484C344.26 30.484 343.578 30.66 342.962 31.012C342.346 31.364 341.855 31.8773 341.488 32.552C341.121 33.2267 340.938 34.0187 340.938 34.928C340.938 35.852 341.121 36.6587 341.488 37.348C341.855 38.0227 342.346 38.5433 342.962 38.91C343.578 39.262 344.26 39.438 345.008 39.438C345.756 39.438 346.438 39.262 347.054 38.91C347.685 38.5433 348.183 38.0227 348.55 37.348C348.917 36.6587 349.1 35.8593 349.1 34.95ZM356.509 31.166C356.905 30.4767 357.492 29.9047 358.269 29.45C359.061 28.9807 359.978 28.746 361.019 28.746C362.09 28.746 363.058 29.0027 363.923 29.516C364.803 30.0293 365.493 30.7553 365.991 31.694C366.49 32.618 366.739 33.696 366.739 34.928C366.739 36.1453 366.49 37.2307 365.991 38.184C365.493 39.1373 364.803 39.878 363.923 40.406C363.058 40.934 362.09 41.198 361.019 41.198C359.993 41.198 359.083 40.9707 358.291 40.516C357.514 40.0467 356.92 39.4673 356.509 38.778V46.72H354.507V28.944H356.509V31.166ZM364.693 34.928C364.693 34.0187 364.51 33.2267 364.143 32.552C363.777 31.8773 363.278 31.364 362.647 31.012C362.031 30.66 361.349 30.484 360.601 30.484C359.868 30.484 359.186 30.6673 358.555 31.034C357.939 31.386 357.441 31.9067 357.059 32.596C356.693 33.2707 356.509 34.0553 356.509 34.95C356.509 35.8593 356.693 36.6587 357.059 37.348C357.441 38.0227 357.939 38.5433 358.555 38.91C359.186 39.262 359.868 39.438 360.601 39.438C361.349 39.438 362.031 39.262 362.647 38.91C363.278 38.5433 363.777 38.0227 364.143 37.348C364.51 36.6587 364.693 35.852 364.693 34.928ZM368.627 34.928C368.627 33.696 368.876 32.618 369.375 31.694C369.873 30.7553 370.555 30.0293 371.421 29.516C372.301 29.0027 373.276 28.746 374.347 28.746C375.403 28.746 376.319 28.9733 377.097 29.428C377.874 29.8827 378.453 30.4547 378.835 31.144V28.944H380.859V41H378.835V38.756C378.439 39.46 377.845 40.0467 377.053 40.516C376.275 40.9707 375.366 41.198 374.325 41.198C373.254 41.198 372.286 40.934 371.421 40.406C370.555 39.878 369.873 39.1373 369.375 38.184C368.876 37.2307 368.627 36.1453 368.627 34.928ZM378.835 34.95C378.835 34.0407 378.651 33.2487 378.285 32.574C377.918 31.8993 377.419 31.386 376.789 31.034C376.173 30.6673 375.491 30.484 374.743 30.484C373.995 30.484 373.313 30.66 372.697 31.012C372.081 31.364 371.589 31.8773 371.223 32.552C370.856 33.2267 370.673 34.0187 370.673 34.928C370.673 35.852 370.856 36.6587 371.223 37.348C371.589 38.0227 372.081 38.5433 372.697 38.91C373.313 39.262 373.995 39.438 374.743 39.438C375.491 39.438 376.173 39.262 376.789 38.91C377.419 38.5433 377.918 38.0227 378.285 37.348C378.651 36.6587 378.835 35.8593 378.835 34.95ZM386.684 30.594V37.7C386.684 38.2867 386.808 38.7047 387.058 38.954C387.307 39.1887 387.74 39.306 388.356 39.306H389.83V41H388.026C386.911 41 386.075 40.7433 385.518 40.23C384.96 39.7167 384.682 38.8733 384.682 37.7V30.594H383.12V28.944H384.682V25.908H386.684V28.944H389.83V30.594H386.684ZM393.289 26.986C392.908 26.986 392.585 26.854 392.321 26.59C392.057 26.326 391.925 26.0033 391.925 25.622C391.925 25.2407 392.057 24.918 392.321 24.654C392.585 24.39 392.908 24.258 393.289 24.258C393.656 24.258 393.964 24.39 394.213 24.654C394.477 24.918 394.609 25.2407 394.609 25.622C394.609 26.0033 394.477 26.326 394.213 26.59C393.964 26.854 393.656 26.986 393.289 26.986ZM394.257 28.944V41H392.255V28.944H394.257ZM408.669 26.898C410.297 26.898 411.713 27.206 412.915 27.822C414.118 28.438 415.042 29.3033 415.687 30.418C416.333 31.518 416.655 32.794 416.655 34.246C416.655 35.4047 416.465 36.5193 416.083 37.59C415.702 38.646 415.145 39.504 414.411 40.164C413.693 40.824 412.849 41.154 411.881 41.154C411.148 41.154 410.583 40.9707 410.187 40.604C409.791 40.2373 409.564 39.7387 409.505 39.108C409.051 39.7387 408.471 40.2373 407.767 40.604C407.078 40.9707 406.345 41.154 405.567 41.154C404.453 41.154 403.573 40.8167 402.927 40.142C402.297 39.4527 401.981 38.5287 401.981 37.37C401.981 36.27 402.209 35.2433 402.663 34.29C403.133 33.3367 403.778 32.574 404.599 32.002C405.421 31.4153 406.352 31.122 407.393 31.122C408.787 31.122 409.725 31.65 410.209 32.706L410.451 31.342H412.189L411.089 37.7C411.045 37.9787 411.023 38.2353 411.023 38.47C411.023 39.35 411.412 39.79 412.189 39.79C412.776 39.79 413.282 39.5113 413.707 38.954C414.147 38.3967 414.477 37.7 414.697 36.864C414.917 36.0133 415.027 35.1773 415.027 34.356C415.027 32.4347 414.448 30.946 413.289 29.89C412.145 28.834 410.525 28.306 408.427 28.306C406.682 28.306 405.105 28.7313 403.697 29.582C402.304 30.418 401.211 31.5693 400.419 33.036C399.627 34.5027 399.231 36.1233 399.231 37.898C399.217 39.834 399.796 41.3227 400.969 42.364C402.143 43.42 403.771 43.948 405.853 43.948C407.232 43.948 408.449 43.6987 409.505 43.2L409.769 44.564C408.464 45.1067 407.027 45.378 405.457 45.378C403.888 45.378 402.502 45.0773 401.299 44.476C400.111 43.8893 399.187 43.0387 398.527 41.924C397.882 40.824 397.559 39.5407 397.559 38.074C397.559 36.006 398.036 34.1213 398.989 32.42C399.943 30.704 401.263 29.3547 402.949 28.372C404.651 27.3893 406.557 26.898 408.669 26.898ZM406.161 39.592C406.821 39.592 407.43 39.4013 407.987 39.02C408.545 38.624 408.985 38.096 409.307 37.436C409.63 36.7613 409.791 36.028 409.791 35.236C409.791 34.4733 409.579 33.8573 409.153 33.388C408.743 32.904 408.156 32.662 407.393 32.662C406.689 32.662 406.066 32.8747 405.523 33.3C404.995 33.7107 404.585 34.2607 404.291 34.95C403.998 35.6247 403.851 36.3287 403.851 37.062C403.851 37.8393 404.049 38.4553 404.445 38.91C404.841 39.3647 405.413 39.592 406.161 39.592ZM424.921 28.746C425.962 28.746 426.871 28.9733 427.649 29.428C428.441 29.8827 429.027 30.4547 429.409 31.144V28.944H431.433V41.264C431.433 42.364 431.198 43.3393 430.729 44.19C430.259 45.0553 429.585 45.73 428.705 46.214C427.839 46.698 426.827 46.94 425.669 46.94C424.085 46.94 422.765 46.566 421.709 45.818C420.653 45.07 420.029 44.0507 419.839 42.76H421.819C422.039 43.4933 422.493 44.08 423.183 44.52C423.872 44.9747 424.701 45.202 425.669 45.202C426.769 45.202 427.663 44.8573 428.353 44.168C429.057 43.4787 429.409 42.5107 429.409 41.264V38.734C429.013 39.438 428.426 40.0247 427.649 40.494C426.871 40.9633 425.962 41.198 424.921 41.198C423.85 41.198 422.875 40.934 421.995 40.406C421.129 39.878 420.447 39.1373 419.949 38.184C419.45 37.2307 419.201 36.1453 419.201 34.928C419.201 33.696 419.45 32.618 419.949 31.694C420.447 30.7553 421.129 30.0293 421.995 29.516C422.875 29.0027 423.85 28.746 424.921 28.746ZM429.409 34.95C429.409 34.0407 429.225 33.2487 428.859 32.574C428.492 31.8993 427.993 31.386 427.363 31.034C426.747 30.6673 426.065 30.484 425.317 30.484C424.569 30.484 423.887 30.66 423.271 31.012C422.655 31.364 422.163 31.8773 421.797 32.552C421.43 33.2267 421.247 34.0187 421.247 34.928C421.247 35.852 421.43 36.6587 421.797 37.348C422.163 38.0227 422.655 38.5433 423.271 38.91C423.887 39.262 424.569 39.438 425.317 39.438C426.065 39.438 426.747 39.262 427.363 38.91C427.993 38.5433 428.492 38.0227 428.859 37.348C429.225 36.6587 429.409 35.8593 429.409 34.95ZM449.314 28.724C450.253 28.724 451.089 28.922 451.822 29.318C452.555 29.6993 453.135 30.2787 453.56 31.056C453.985 31.8333 454.198 32.7793 454.198 33.894V41H452.218V34.18C452.218 32.9773 451.917 32.0607 451.316 31.43C450.729 30.7847 449.93 30.462 448.918 30.462C447.877 30.462 447.048 30.7993 446.432 31.474C445.816 32.134 445.508 33.0947 445.508 34.356V41H443.528V34.18C443.528 32.9773 443.227 32.0607 442.626 31.43C442.039 30.7847 441.24 30.462 440.228 30.462C439.187 30.462 438.358 30.7993 437.742 31.474C437.126 32.134 436.818 33.0947 436.818 34.356V41H434.816V28.944H436.818V30.682C437.214 30.0513 437.742 29.5673 438.402 29.23C439.077 28.8927 439.817 28.724 440.624 28.724C441.636 28.724 442.531 28.9513 443.308 29.406C444.085 29.8607 444.665 30.528 445.046 31.408C445.383 30.5573 445.941 29.8973 446.718 29.428C447.495 28.9587 448.361 28.724 449.314 28.724ZM456.734 34.928C456.734 33.696 456.983 32.618 457.482 31.694C457.981 30.7553 458.663 30.0293 459.528 29.516C460.408 29.0027 461.383 28.746 462.454 28.746C463.51 28.746 464.427 28.9733 465.204 29.428C465.981 29.8827 466.561 30.4547 466.942 31.144V28.944H468.966V41H466.942V38.756C466.546 39.46 465.952 40.0467 465.16 40.516C464.383 40.9707 463.473 41.198 462.432 41.198C461.361 41.198 460.393 40.934 459.528 40.406C458.663 39.878 457.981 39.1373 457.482 38.184C456.983 37.2307 456.734 36.1453 456.734 34.928ZM466.942 34.95C466.942 34.0407 466.759 33.2487 466.392 32.574C466.025 31.8993 465.527 31.386 464.896 31.034C464.28 30.6673 463.598 30.484 462.85 30.484C462.102 30.484 461.42 30.66 460.804 31.012C460.188 31.364 459.697 31.8773 459.33 32.552C458.963 33.2267 458.78 34.0187 458.78 34.928C458.78 35.852 458.963 36.6587 459.33 37.348C459.697 38.0227 460.188 38.5433 460.804 38.91C461.42 39.262 462.102 39.438 462.85 39.438C463.598 39.438 464.28 39.262 464.896 38.91C465.527 38.5433 466.025 38.0227 466.392 37.348C466.759 36.6587 466.942 35.8593 466.942 34.95ZM473.383 26.986C473.002 26.986 472.679 26.854 472.415 26.59C472.151 26.326 472.019 26.0033 472.019 25.622C472.019 25.2407 472.151 24.918 472.415 24.654C472.679 24.39 473.002 24.258 473.383 24.258C473.75 24.258 474.058 24.39 474.307 24.654C474.571 24.918 474.703 25.2407 474.703 25.622C474.703 26.0033 474.571 26.326 474.307 26.59C474.058 26.854 473.75 26.986 473.383 26.986ZM474.351 28.944V41H472.349V28.944H474.351ZM479.765 24.72V41H477.763V24.72H479.765ZM483.815 41.132C483.434 41.132 483.111 41 482.847 40.736C482.583 40.472 482.451 40.1493 482.451 39.768C482.451 39.3867 482.583 39.064 482.847 38.8C483.111 38.536 483.434 38.404 483.815 38.404C484.182 38.404 484.49 38.536 484.739 38.8C485.003 39.064 485.135 39.3867 485.135 39.768C485.135 40.1493 485.003 40.472 484.739 40.736C484.49 41 484.182 41.132 483.815 41.132ZM487.048 34.95C487.048 33.7033 487.298 32.618 487.796 31.694C488.295 30.7553 488.984 30.0293 489.864 29.516C490.759 29.0027 491.778 28.746 492.922 28.746C494.404 28.746 495.621 29.1053 496.574 29.824C497.542 30.5427 498.18 31.54 498.488 32.816H496.332C496.127 32.0827 495.724 31.5033 495.122 31.078C494.536 30.6527 493.802 30.44 492.922 30.44C491.778 30.44 490.854 30.836 490.15 31.628C489.446 32.4053 489.094 33.5127 489.094 34.95C489.094 36.402 489.446 37.524 490.15 38.316C490.854 39.108 491.778 39.504 492.922 39.504C493.802 39.504 494.536 39.2987 495.122 38.888C495.709 38.4773 496.112 37.8907 496.332 37.128H498.488C498.166 38.36 497.52 39.35 496.552 40.098C495.584 40.8313 494.374 41.198 492.922 41.198C491.778 41.198 490.759 40.9413 489.864 40.428C488.984 39.9147 488.295 39.1887 487.796 38.25C487.298 37.3113 487.048 36.2113 487.048 34.95ZM506.418 41.198C505.288 41.198 504.262 40.9413 503.338 40.428C502.428 39.9147 501.71 39.1887 501.182 38.25C500.668 37.2967 500.412 36.1967 500.412 34.95C500.412 33.718 500.676 32.6327 501.204 31.694C501.746 30.7407 502.48 30.0147 503.404 29.516C504.328 29.0027 505.362 28.746 506.506 28.746C507.65 28.746 508.684 29.0027 509.608 29.516C510.532 30.0147 511.258 30.7333 511.786 31.672C512.328 32.6107 512.6 33.7033 512.6 34.95C512.6 36.1967 512.321 37.2967 511.764 38.25C511.221 39.1887 510.48 39.9147 509.542 40.428C508.603 40.9413 507.562 41.198 506.418 41.198ZM506.418 39.438C507.136 39.438 507.811 39.2693 508.442 38.932C509.072 38.5947 509.578 38.0887 509.96 37.414C510.356 36.7393 510.554 35.918 510.554 34.95C510.554 33.982 510.363 33.1607 509.982 32.486C509.6 31.8113 509.102 31.3127 508.486 30.99C507.87 30.6527 507.202 30.484 506.484 30.484C505.75 30.484 505.076 30.6527 504.46 30.99C503.858 31.3127 503.374 31.8113 503.008 32.486C502.641 33.1607 502.458 33.982 502.458 34.95C502.458 35.9327 502.634 36.7613 502.986 37.436C503.352 38.1107 503.836 38.6167 504.438 38.954C505.039 39.2767 505.699 39.438 506.418 39.438ZM529.73 28.724C530.669 28.724 531.505 28.922 532.238 29.318C532.971 29.6993 533.551 30.2787 533.976 31.056C534.401 31.8333 534.614 32.7793 534.614 33.894V41H532.634V34.18C532.634 32.9773 532.333 32.0607 531.732 31.43C531.145 30.7847 530.346 30.462 529.334 30.462C528.293 30.462 527.464 30.7993 526.848 31.474C526.232 32.134 525.924 33.0947 525.924 34.356V41H523.944V34.18C523.944 32.9773 523.643 32.0607 523.042 31.43C522.455 30.7847 521.656 30.462 520.644 30.462C519.603 30.462 518.774 30.7993 518.158 31.474C517.542 32.134 517.234 33.0947 517.234 34.356V41H515.232V28.944H517.234V30.682C517.63 30.0513 518.158 29.5673 518.818 29.23C519.493 28.8927 520.233 28.724 521.04 28.724C522.052 28.724 522.947 28.9513 523.724 29.406C524.501 29.8607 525.081 30.528 525.462 31.408C525.799 30.5573 526.357 29.8973 527.134 29.428C527.911 28.9587 528.777 28.724 529.73 28.724Z" fill="white"/>
<path d="M233.6 44.375H230.2V28.5156L220 35.3125L209.8 28.5156V44.375H206.4V22.625H208.44L220 30.3281L231.56 22.625H233.6M233.6 19H206.4C204.513 19 203 20.6131 203 22.625V44.375C203 45.3364 203.358 46.2584 203.996 46.9383C204.633 47.6181 205.498 48 206.4 48H233.6C234.502 48 235.367 47.6181 236.004 46.9383C236.642 46.2584 237 45.3364 237 44.375V22.625C237 21.6636 236.642 20.7416 236.004 20.0617C235.367 19.3819 234.502 19 233.6 19Z" fill="#F37021"/>
<rect x="0.5" y="0.5" width="167" height="65" rx="7.5" stroke="#F37021"/>
<rect x="0.5" y="0.5" width="167" height="65" rx="7.5" stroke="black" stroke-opacity="0.2"/>
<path d="M63.0456 39.372H68.4136V41H61.0436V25.666H63.0456V39.372ZM71.5737 26.986C71.1924 26.986 70.8697 26.854 70.6057 26.59C70.3417 26.326 70.2097 26.0033 70.2097 25.622C70.2097 25.2407 70.3417 24.918 70.6057 24.654C70.8697 24.39 71.1924 24.258 71.5737 24.258C71.9404 24.258 72.2484 24.39 72.4977 24.654C72.7617 24.918 72.8937 25.2407 72.8937 25.622C72.8937 26.0033 72.7617 26.326 72.4977 26.59C72.2484 26.854 71.9404 26.986 71.5737 26.986ZM72.5417 28.944V41H70.5397V28.944H72.5417ZM81.8278 28.724C83.2944 28.724 84.4824 29.1713 85.3918 30.066C86.3011 30.946 86.7558 32.222 86.7558 33.894V41H84.7758V34.18C84.7758 32.9773 84.4751 32.0607 83.8738 31.43C83.2724 30.7847 82.4511 30.462 81.4098 30.462C80.3538 30.462 79.5104 30.792 78.8798 31.452C78.2638 32.112 77.9558 33.0727 77.9558 34.334V41H75.9538V28.944H77.9558V30.66C78.3518 30.044 78.8871 29.5673 79.5618 29.23C80.2511 28.8927 81.0064 28.724 81.8278 28.724ZM96.758 41L92.028 35.676V41H90.026V24.72H92.028V34.29L96.67 28.944H99.464L93.788 34.95L99.486 41H96.758ZM112.348 34.51C112.348 34.8913 112.326 35.2947 112.282 35.72H102.646C102.72 36.908 103.123 37.8393 103.856 38.514C104.604 39.174 105.506 39.504 106.562 39.504C107.428 39.504 108.146 39.306 108.718 38.91C109.305 38.4993 109.716 37.9567 109.95 37.282H112.106C111.784 38.4407 111.138 39.3867 110.17 40.12C109.202 40.8387 108 41.198 106.562 41.198C105.418 41.198 104.392 40.9413 103.482 40.428C102.588 39.9147 101.884 39.1887 101.37 38.25C100.857 37.2967 100.6 36.1967 100.6 34.95C100.6 33.7033 100.85 32.6107 101.348 31.672C101.847 30.7333 102.544 30.0147 103.438 29.516C104.348 29.0027 105.389 28.746 106.562 28.746C107.706 28.746 108.718 28.9953 109.598 29.494C110.478 29.9927 111.153 30.682 111.622 31.562C112.106 32.4273 112.348 33.41 112.348 34.51ZM110.28 34.092C110.28 33.3293 110.112 32.6767 109.774 32.134C109.437 31.5767 108.975 31.1587 108.388 30.88C107.816 30.5867 107.178 30.44 106.474 30.44C105.462 30.44 104.597 30.7627 103.878 31.408C103.174 32.0533 102.771 32.948 102.668 34.092H110.28ZM114.243 34.928C114.243 33.696 114.492 32.618 114.991 31.694C115.49 30.7553 116.172 30.0293 117.037 29.516C117.917 29.0027 118.9 28.746 119.985 28.746C120.924 28.746 121.796 28.966 122.603 29.406C123.41 29.8313 124.026 30.396 124.451 31.1V24.72H126.475V41H124.451V38.734C124.055 39.4527 123.468 40.0467 122.691 40.516C121.914 40.9707 121.004 41.198 119.963 41.198C118.892 41.198 117.917 40.934 117.037 40.406C116.172 39.878 115.49 39.1373 114.991 38.184C114.492 37.2307 114.243 36.1453 114.243 34.928ZM124.451 34.95C124.451 34.0407 124.268 33.2487 123.901 32.574C123.534 31.8993 123.036 31.386 122.405 31.034C121.789 30.6673 121.107 30.484 120.359 30.484C119.611 30.484 118.929 30.66 118.313 31.012C117.697 31.364 117.206 31.8773 116.839 32.552C116.472 33.2267 116.289 34.0187 116.289 34.928C116.289 35.852 116.472 36.6587 116.839 37.348C117.206 38.0227 117.697 38.5433 118.313 38.91C118.929 39.262 119.611 39.438 120.359 39.438C121.107 39.438 121.789 39.262 122.405 38.91C123.036 38.5433 123.534 38.0227 123.901 37.348C124.268 36.6587 124.451 35.8593 124.451 34.95ZM131.86 25.666V41H129.858V25.666H131.86ZM141.146 28.724C142.613 28.724 143.801 29.1713 144.71 30.066C145.619 30.946 146.074 32.222 146.074 33.894V41H144.094V34.18C144.094 32.9773 143.793 32.0607 143.192 31.43C142.591 30.7847 141.769 30.462 140.728 30.462C139.672 30.462 138.829 30.792 138.198 31.452C137.582 32.112 137.274 33.0727 137.274 34.334V41H135.272V28.944H137.274V30.66C137.67 30.044 138.205 29.5673 138.88 29.23C139.569 28.8927 140.325 28.724 141.146 28.724Z" fill="white"/>
<path d="M45.4444 19C46.3874 19 47.2918 19.3395 47.9586 19.9438C48.6254 20.5481 49 21.3676 49 22.2222V44.7778C49 45.6324 48.6254 46.4519 47.9586 47.0562C47.2918 47.6605 46.3874 48 45.4444 48H20.5556C19.6126 48 18.7082 47.6605 18.0414 47.0562C17.3746 46.4519 17 45.6324 17 44.7778V22.2222C17 21.3676 17.3746 20.5481 18.0414 19.9438C18.7082 19.3395 19.6126 19 20.5556 19H45.4444ZM44.5556 43.9722V35.4333C44.5556 34.0404 43.945 32.7044 42.8581 31.7195C41.7712 30.7345 40.2971 30.1811 38.76 30.1811C37.2489 30.1811 35.4889 31.0189 34.6356 32.2756V30.4872H29.6756V43.9722H34.6356V36.0294C34.6356 34.7889 35.7378 33.7739 37.1067 33.7739C37.7668 33.7739 38.3998 34.0115 38.8666 34.4345C39.3333 34.8575 39.5956 35.4312 39.5956 36.0294V43.9722H44.5556ZM23.8978 27.9578C24.6899 27.9578 25.4496 27.6726 26.0097 27.165C26.5698 26.6574 26.8844 25.969 26.8844 25.2511C26.8844 23.7528 25.5511 22.5283 23.8978 22.5283C23.1009 22.5283 22.3368 22.8152 21.7733 23.3258C21.2099 23.8364 20.8933 24.529 20.8933 25.2511C20.8933 26.7494 22.2444 27.9578 23.8978 27.9578ZM26.3689 43.9722V30.4872H21.4444V43.9722H26.3689Z" fill="#F37021"/>
<rect x="571.5" y="0.5" width="154" height="65" rx="7.5" stroke="#F37021"/>
<rect x="571.5" y="0.5" width="154" height="65" rx="7.5" stroke="black" stroke-opacity="0.2"/>
<path d="M646.748 30.11C646.322 29.2153 645.706 28.526 644.9 28.042C644.093 27.5433 643.154 27.294 642.084 27.294C641.013 27.294 640.045 27.5433 639.18 28.042C638.329 28.526 637.654 29.23 637.156 30.154C636.672 31.0633 636.43 32.1193 636.43 33.322C636.43 34.5247 636.672 35.5807 637.156 36.49C637.654 37.3993 638.329 38.1033 639.18 38.602C640.045 39.086 641.013 39.328 642.084 39.328C643.58 39.328 644.812 38.8807 645.78 37.986C646.748 37.0913 647.312 35.8813 647.474 34.356H641.358V32.728H649.608V34.268C649.49 35.5293 649.094 36.688 648.42 37.744C647.745 38.7853 646.858 39.614 645.758 40.23C644.658 40.8313 643.433 41.132 642.084 41.132C640.661 41.132 639.363 40.802 638.19 40.142C637.016 39.4673 636.085 38.536 635.396 37.348C634.721 36.16 634.384 34.818 634.384 33.322C634.384 31.826 634.721 30.484 635.396 29.296C636.085 28.0933 637.016 27.162 638.19 26.502C639.363 25.8273 640.661 25.49 642.084 25.49C643.712 25.49 645.149 25.8933 646.396 26.7C647.657 27.5067 648.574 28.6433 649.146 30.11H646.748ZM653.289 26.986C652.907 26.986 652.585 26.854 652.321 26.59C652.057 26.326 651.925 26.0033 651.925 25.622C651.925 25.2407 652.057 24.918 652.321 24.654C652.585 24.39 652.907 24.258 653.289 24.258C653.655 24.258 653.963 24.39 654.213 24.654C654.477 24.918 654.609 25.2407 654.609 25.622C654.609 26.0033 654.477 26.326 654.213 26.59C653.963 26.854 653.655 26.986 653.289 26.986ZM654.257 28.944V41H652.255V28.944H654.257ZM660.111 30.594V37.7C660.111 38.2867 660.235 38.7047 660.485 38.954C660.734 39.1887 661.167 39.306 661.783 39.306H663.257V41H661.453C660.338 41 659.502 40.7433 658.945 40.23C658.387 39.7167 658.109 38.8733 658.109 37.7V30.594H656.547V28.944H658.109V25.908H660.111V28.944H663.257V30.594H660.111ZM671.666 28.724C672.576 28.724 673.397 28.922 674.13 29.318C674.864 29.6993 675.436 30.2787 675.846 31.056C676.272 31.8333 676.484 32.7793 676.484 33.894V41H674.504V34.18C674.504 32.9773 674.204 32.0607 673.602 31.43C673.001 30.7847 672.18 30.462 671.138 30.462C670.082 30.462 669.239 30.792 668.608 31.452C667.992 32.112 667.684 33.0727 667.684 34.334V41H665.682V24.72H667.684V30.66C668.08 30.044 668.623 29.5673 669.312 29.23C670.016 28.8927 670.801 28.724 671.666 28.724ZM690.447 28.944V41H688.445V39.218C688.063 39.834 687.528 40.318 686.839 40.67C686.164 41.0073 685.416 41.176 684.595 41.176C683.656 41.176 682.813 40.9853 682.065 40.604C681.317 40.208 680.723 39.6213 680.283 38.844C679.857 38.0667 679.645 37.1207 679.645 36.006V28.944H681.625V35.742C681.625 36.93 681.925 37.8467 682.527 38.492C683.128 39.1227 683.949 39.438 684.991 39.438C686.061 39.438 686.905 39.108 687.521 38.448C688.137 37.788 688.445 36.8273 688.445 35.566V28.944H690.447ZM695.829 31.188C696.239 30.4693 696.841 29.8827 697.633 29.428C698.425 28.9733 699.327 28.746 700.339 28.746C701.424 28.746 702.399 29.0027 703.265 29.516C704.13 30.0293 704.812 30.7553 705.311 31.694C705.809 32.618 706.059 33.696 706.059 34.928C706.059 36.1453 705.809 37.2307 705.311 38.184C704.812 39.1373 704.123 39.878 703.243 40.406C702.377 40.934 701.409 41.198 700.339 41.198C699.297 41.198 698.381 40.9707 697.589 40.516C696.811 40.0613 696.225 39.482 695.829 38.778V41H693.827V24.72H695.829V31.188ZM704.013 34.928C704.013 34.0187 703.829 33.2267 703.463 32.552C703.096 31.8773 702.597 31.364 701.967 31.012C701.351 30.66 700.669 30.484 699.921 30.484C699.187 30.484 698.505 30.6673 697.875 31.034C697.259 31.386 696.76 31.9067 696.379 32.596C696.012 33.2707 695.829 34.0553 695.829 34.95C695.829 35.8593 696.012 36.6587 696.379 37.348C696.76 38.0227 697.259 38.5433 697.875 38.91C698.505 39.262 699.187 39.438 699.921 39.438C700.669 39.438 701.351 39.262 701.967 38.91C702.597 38.5433 703.096 38.0227 703.463 37.348C703.829 36.6587 704.013 35.852 704.013 34.928Z" fill="white"/>
<path d="M606.5 16C604.333 16 602.188 16.4374 600.186 17.2872C598.184 18.137 596.365 19.3825 594.833 20.9527C591.738 24.1239 590 28.4249 590 32.9096C590 40.3837 594.736 46.7248 601.286 48.9738C602.111 49.1091 602.375 48.5849 602.375 48.1283V45.2706C597.805 46.2852 596.831 43.0047 596.831 43.0047C596.072 41.0432 595 40.519 595 40.519C593.498 39.4706 595.115 39.5044 595.115 39.5044C596.765 39.6228 597.639 41.2461 597.639 41.2461C599.075 43.8164 601.5 43.0554 602.441 42.6496C602.589 41.5505 603.018 40.8064 603.48 40.3837C599.817 39.961 595.973 38.5067 595.973 32.0642C595.973 30.1872 596.6 28.6822 597.673 27.4816C597.508 27.0589 596.93 25.3003 597.838 23.0175C597.838 23.0175 599.224 22.5609 602.375 24.7423C603.679 24.3703 605.098 24.1843 606.5 24.1843C607.903 24.1843 609.322 24.3703 610.625 24.7423C613.777 22.5609 615.163 23.0175 615.163 23.0175C616.07 25.3003 615.493 27.0589 615.327 27.4816C616.4 28.6822 617.027 30.1872 617.027 32.0642C617.027 38.5236 613.166 39.9441 609.486 40.3668C610.08 40.891 610.625 41.9225 610.625 43.4951V48.1283C610.625 48.5849 610.889 49.126 611.73 48.9738C618.281 46.7079 623 40.3837 623 32.9096C623 30.689 622.573 28.4902 621.744 26.4386C620.915 24.387 619.699 22.5229 618.167 20.9527C616.635 19.3825 614.816 18.137 612.814 17.2872C610.812 16.4374 608.667 16 606.5 16Z" fill="#F37021"/>
</svg>
